<?xml version="1.0" encoding="utf-8"?>
<!-- Generator: Adobe Illustrator 16.0.3, SVG Export Plug-In . SVG Version: 6.00 Build 0)  -->
<!DOCTYPE svg PUBLIC "-//W3C//DTD SVG 1.1//EN" "http://www.w3.org/Graphics/SVG/1.1/DTD/svg11.dtd">
<svg version="1.1" id="圖層_1" xmlns="http://www.w3.org/2000/svg" xmlns:xlink="http://www.w3.org/1999/xlink" x="0px" y="0px"
	 width="120px" height="120px" viewBox="0 0 120 120" enable-background="new 0 0 120 120" xml:space="preserve">
<g transform="matrix( 1, 0, 0, 1, 600,620) ">
	<g transform="matrix( 1, 0, 0, 1, 0,0) ">
		<g>
			<g id="Symbol_3_0_Layer0_0_FILL">
				<path fill="#70B497" fill-opacity="0.898" d="M-506.061-590.304c-9.373-9.37-20.686-14.055-33.939-14.055
					c-13.253,0-24.568,4.685-33.945,14.055c-9.37,9.376-14.055,20.691-14.055,33.944c0,13.25,4.685,24.561,14.055,33.931
					c9.377,9.38,20.692,14.069,33.945,14.069c13.254,0,24.566-4.689,33.939-14.069c9.373-9.37,14.061-20.681,14.061-33.931
					C-492-569.612-496.688-580.927-506.061-590.304z"/>
			</g>
		</g>
	</g>
	<g transform="matrix( 1.4003143310546875, 0, 0, 1.4003143310546875, -12.45,485) ">
		<g>
			<g id="Symbol_3_0_Layer0_0_MEMBER_0_MEMBER_0_FILL">
				<path fill="#A9D4C8" d="M-359.876-730.887c0.04,0.04,0.09,0.06,0.15,0.06h0.435l0.415,0.82l-0.49,0.765
					c-0.393-0.213-0.815-0.32-1.265-0.32c-0.36,0-0.704,0.07-1.035,0.21c-0.319,0.137-0.603,0.328-0.849,0.575
					c-0.247,0.247-0.439,0.53-0.575,0.851c-0.14,0.329-0.21,0.676-0.21,1.039c0,0.361,0.07,0.706,0.21,1.036
					c0.137,0.32,0.328,0.603,0.575,0.85c0.247,0.247,0.53,0.438,0.849,0.575c0.331,0.14,0.675,0.211,1.035,0.211
					c0.697,0,1.302-0.239,1.815-0.716c0.51-0.473,0.793-1.053,0.85-1.74h0.63l-0.245,0.795h-0.14c-0.06,0-0.112,0.022-0.155,0.065
					c-0.04,0.043-0.06,0.093-0.06,0.151c0,0.06,0.02,0.112,0.06,0.155c0.043,0.04,0.095,0.06,0.155,0.06h0.775
					c0.06,0,0.11-0.02,0.151-0.06c0.043-0.043,0.065-0.095,0.065-0.155c0-0.057-0.022-0.107-0.065-0.151
					c-0.04-0.043-0.091-0.065-0.151-0.065h-0.184l0.285-0.92l1.79-2.765l0.211,0.405c-0.386,0.24-0.692,0.558-0.915,0.955
					c-0.23,0.407-0.345,0.845-0.345,1.315c0,0.361,0.07,0.706,0.21,1.036c0.134,0.32,0.325,0.603,0.575,0.85
					c0.244,0.247,0.526,0.438,0.845,0.575c0.333,0.14,0.681,0.211,1.041,0.211c0.363,0,0.71-0.07,1.04-0.211
					c0.32-0.137,0.603-0.328,0.85-0.575c0.247-0.247,0.438-0.53,0.575-0.85c0.14-0.33,0.211-0.675,0.211-1.036
					c0-0.363-0.07-0.71-0.211-1.039c-0.137-0.321-0.328-0.604-0.575-0.851c-0.247-0.246-0.53-0.438-0.85-0.575
					c-0.33-0.139-0.677-0.21-1.04-0.21c-0.357,0-0.7,0.068-1.031,0.205l-0.755-1.47h1.06c0.057,0,0.105,0.022,0.145,0.065
					c0.04,0.04,0.06,0.089,0.06,0.145c0,0.057-0.02,0.107-0.06,0.151c-0.04,0.039-0.088,0.06-0.145,0.06h-0.23
					c-0.056,0-0.107,0.02-0.15,0.06c-0.043,0.043-0.065,0.095-0.065,0.155c0,0.06,0.022,0.11,0.065,0.149
					c0.043,0.044,0.093,0.066,0.15,0.066h0.23c0.173,0,0.324-0.061,0.451-0.185c0.123-0.126,0.184-0.278,0.184-0.455
					c0-0.176-0.061-0.326-0.184-0.45c-0.127-0.126-0.278-0.19-0.451-0.19h-1.415c-0.037,0-0.072,0.01-0.105,0.031
					c-0.033,0.017-0.06,0.041-0.079,0.075c-0.017,0.03-0.026,0.065-0.031,0.105c0,0.036,0.008,0.071,0.025,0.105l0.375,0.73h-3.105
					l-0.315-0.615h0.495c0.06,0,0.112-0.02,0.155-0.06c0.043-0.043,0.066-0.095,0.066-0.155c0-0.061-0.022-0.11-0.066-0.15
					c-0.043-0.043-0.095-0.066-0.155-0.066h-1.41c-0.06,0-0.11,0.022-0.15,0.066c-0.043,0.04-0.065,0.089-0.065,0.15
					C-359.941-730.982-359.919-730.931-359.876-730.887 M-358.276-729.782h2.85l-1.595,2.465L-358.276-729.782 M-362.871-726.888
					c0-0.619,0.219-1.149,0.656-1.589c0.439-0.437,0.968-0.655,1.584-0.655c0.364,0,0.707,0.083,1.031,0.25l-1.211,1.875
					c-0.02,0.034-0.031,0.07-0.035,0.11c0,0.04,0.01,0.077,0.031,0.11c0.016,0.036,0.041,0.066,0.075,0.085
					c0.033,0.02,0.07,0.03,0.109,0.03h2.236c-0.057,0.57-0.297,1.048-0.72,1.435c-0.43,0.393-0.935,0.59-1.515,0.59
					c-0.616,0-1.145-0.22-1.584-0.66C-362.652-725.744-362.871-726.271-362.871-726.888 M-351.192-726.888
					c0,0.617-0.219,1.144-0.66,1.58c-0.437,0.44-0.965,0.66-1.584,0.66c-0.617,0-1.145-0.22-1.585-0.66
					c-0.437-0.437-0.655-0.963-0.655-1.58c0-0.389,0.095-0.753,0.285-1.089c0.18-0.326,0.427-0.591,0.741-0.795l1.024,1.98
					c0.02,0.037,0.047,0.066,0.08,0.09c0.033,0.02,0.07,0.03,0.11,0.03c0.033,0,0.066-0.008,0.1-0.025
					c0.054-0.026,0.089-0.068,0.105-0.125c0.02-0.057,0.015-0.112-0.015-0.165l-1.02-1.985c0.269-0.107,0.547-0.16,0.83-0.16
					c0.619,0,1.148,0.218,1.584,0.655C-351.411-728.037-351.192-727.507-351.192-726.888 M-358.666-727.972
					c0.151,0.27,0.24,0.56,0.271,0.87h-1.84l0.995-1.545C-359.004-728.461-358.813-728.235-358.666-727.972 M-358.291-728.182
					c-0.18-0.324-0.418-0.598-0.716-0.825l0.356-0.555l1.255,2.46h-0.57C-357.996-727.486-358.104-727.846-358.291-728.182z"/>
			</g>
		</g>
	</g>
	<g transform="matrix( 1.3271484375, 0, 0, 1.3271484375, 296.75,184.55) ">
		<g>
			<g id="Symbol_3_0_Layer0_0_MEMBER_0_MEMBER_1_MEMBER_0_FILL">
				<path fill="#A9D4C8" d="M-599.353-564.626h-6.33c-0.283,0-0.525,0.102-0.726,0.305c-0.203,0.2-0.305,0.442-0.305,0.725v10.87
					c0,0.286,0.102,0.531,0.305,0.734c0.2,0.2,0.442,0.3,0.726,0.3h6.33c0.284,0,0.527-0.1,0.73-0.3c0.2-0.203,0.3-0.448,0.3-0.734
					v-10.87c0-0.283-0.1-0.525-0.3-0.725C-598.826-564.524-599.069-564.626-599.353-564.626 M-598.732-563.596v1.45h-7.565v-1.45
					c0-0.17,0.06-0.315,0.18-0.435c0.121-0.12,0.266-0.18,0.436-0.18h6.33c0.171,0,0.316,0.06,0.44,0.18
					C-598.792-563.911-598.732-563.766-598.732-563.596 M-598.732-561.735v7.155h-7.565v-7.155H-598.732 M-606.298-552.725v-1.445
					h7.565v1.445c0,0.173-0.06,0.319-0.18,0.439c-0.124,0.12-0.269,0.18-0.44,0.18h-6.33c-0.17,0-0.315-0.06-0.436-0.18
					C-606.237-552.406-606.298-552.552-606.298-552.725z"/>
			</g>
		</g>
	</g>
	<g transform="matrix( 0.4565277099609375, 0, 0, 0.4565277099609375, 315.5,-80.85) ">
		<g>
			<g id="Symbol_3_0_Layer0_0_MEMBER_0_MEMBER_1_MEMBER_1_FILL">
				<path fill="#A9D4C8" d="M-1790.198-1056.263c-0.118-0.116-0.259-0.174-0.426-0.174l-4-0.005c-0.165,0-0.306,0.059-0.426,0.175
					c-0.115,0.12-0.175,0.261-0.175,0.425c0,0.167,0.06,0.309,0.175,0.425c0.118,0.118,0.259,0.175,0.426,0.175l4,0.005
					c0.167,0,0.308-0.059,0.426-0.174c0.115-0.118,0.175-0.259,0.175-0.426S-1790.082-1056.145-1790.198-1056.263z"/>
			</g>
		</g>
	</g>
	<g transform="matrix( 0.4565277099609375, 0, 0, 0.4565277099609375, 315.5,-80.85) ">
		<g>
			<g id="Symbol_3_0_Layer0_0_MEMBER_0_MEMBER_1_MEMBER_2_FILL">
				<path fill="#A9D4C8" d="M-1791.349-1027.913c-0.353-0.351-0.779-0.531-1.275-0.531c-0.492,0-0.916,0.18-1.271,0.531
					c-0.353,0.355-0.531,0.779-0.531,1.271c0,0.496,0.178,0.922,0.531,1.275c0.351,0.351,0.774,0.526,1.271,0.526
					c0.496,0,0.922-0.175,1.275-0.526c0.351-0.353,0.526-0.779,0.526-1.275C-1790.822-1027.139-1790.998-1027.562-1791.349-1027.913
					 M-1792.2-1026.217c-0.116,0.118-0.257,0.173-0.424,0.173s-0.308-0.056-0.424-0.173c-0.118-0.118-0.175-0.259-0.175-0.426
					c0-0.162,0.058-0.304,0.175-0.423c0.12-0.118,0.261-0.175,0.424-0.175c0.167,0,0.308,0.058,0.424,0.175
					c0.12,0.115,0.175,0.257,0.175,0.423C-1792.025-1026.476-1792.08-1026.334-1792.2-1026.217z"/>
			</g>
		</g>
	</g>
	<g transform="matrix( 0.4565277099609375, 0, 0, 0.4565277099609375, 315.5,-80.85) ">
		<g>
			<g id="Symbol_3_0_Layer0_0_MEMBER_0_MEMBER_1_MEMBER_3_FILL">
				<path fill="#A9D4C8" d="M-1792.29-1049.737c-0.098-0.066-0.21-0.099-0.334-0.099c-0.12,0-0.231,0.033-0.329,0.099
					c-0.1,0.067-0.173,0.155-0.22,0.265l-1.666,3.995l-0.004,0.011l-2.329,5.596c-0.03,0.064-0.045,0.133-0.045,0.203v0.026
					l-0.004,0.004v6.396c0,0.165,0.058,0.308,0.175,0.426c0.115,0.115,0.257,0.175,0.424,0.175h8.005
					c0.167,0,0.308-0.06,0.426-0.175c0.118-0.118,0.175-0.261,0.175-0.426v-1.996c0-0.167-0.058-0.308-0.175-0.424
					c-0.118-0.118-0.259-0.175-0.426-0.175s-0.308,0.058-0.424,0.175c-0.118,0.115-0.175,0.257-0.175,0.424v1.395h-2.807v-5.264
					c0.565,0.319,1.181,0.481,1.846,0.481c0.332,0,0.65-0.043,0.96-0.12v1.108c0,0.167,0.058,0.308,0.175,0.426
					c0.116,0.118,0.257,0.173,0.424,0.173s0.308-0.056,0.426-0.173c0.118-0.118,0.175-0.259,0.175-0.426v-2l-0.006-0.004v-0.026
					c0-0.071-0.013-0.139-0.043-0.203l-2.332-5.596l-0.004-0.011l-1.664-3.995C-1792.11-1049.582-1792.185-1049.67-1792.29-1049.737
					 M-1792.624-1047.676l0.77,1.84h-1.536L-1792.624-1047.676 M-1792.127-1040.782c-0.124-0.171-0.291-0.257-0.496-0.257
					c-0.203,0-0.368,0.086-0.49,0.257c-0.21,0.299-0.486,0.535-0.83,0.706c-0.347,0.167-0.721,0.248-1.119,0.248
					c-0.272,0-0.531-0.038-0.781-0.12l1.953-4.689h2.537l1.955,4.689c-0.25,0.081-0.509,0.12-0.781,0.12
					c-0.4,0.004-0.772-0.079-1.114-0.248C-1791.64-1040.247-1791.918-1040.483-1792.127-1040.782 M-1795.062-1038.622
					c0.663,0,1.275-0.162,1.84-0.485v5.264h-2.802v-4.903C-1795.7-1038.664-1795.379-1038.622-1795.062-1038.622z"/>
			</g>
		</g>
	</g>
	<g transform="matrix( 1.130340576171875, 0, 0, 1.130340576171875, -583.45,-21.35) ">
		<g>
			<g id="Symbol_3_0_Layer0_0_MEMBER_0_MEMBER_2_MEMBER_0_FILL">
				<path fill="#A9D4C8" d="M6.902-478.46c-0.213,0-0.395,0.042-0.545,0.125c-0.137,0.083-0.205,0.19-0.205,0.32
					c0,0.12,0.068,0.222,0.205,0.305c0.15,0.083,0.332,0.13,0.545,0.14c0.21,0,0.39-0.041,0.54-0.125
					c0.137-0.083,0.205-0.19,0.205-0.32c0-0.13-0.068-0.237-0.205-0.32C7.292-478.418,7.113-478.46,6.902-478.46 M6.902-477.865
					c-0.14-0.006-0.257-0.03-0.35-0.07c-0.073-0.036-0.11-0.063-0.11-0.08c0-0.026,0.037-0.055,0.11-0.085
					c0.093-0.047,0.21-0.07,0.35-0.07c0.127,0,0.241,0.023,0.345,0.07c0.073,0.037,0.11,0.065,0.11,0.085
					c0,0.027-0.036,0.053-0.11,0.08C7.144-477.889,7.029-477.865,6.902-477.865z"/>
			</g>
		</g>
	</g>
	<g transform="matrix( 1.130340576171875, 0, 0, 1.130340576171875, -583.45,-21.35) ">
		<g>
			<g id="Symbol_3_0_Layer0_0_MEMBER_0_MEMBER_2_MEMBER_1_FILL">
				<path fill="#A9D4C8" d="M6.902-477.06c-0.14,0-0.265-0.023-0.375-0.07l-0.085-0.08v-0.805c0-0.103-0.05-0.155-0.15-0.155
					c-0.093,0-0.14,0.052-0.14,0.155v0.805c0,0.137,0.083,0.247,0.25,0.33c0.146,0.073,0.313,0.11,0.5,0.11
					c0.21,0,0.39-0.041,0.54-0.125c0.137-0.08,0.205-0.185,0.205-0.315v-0.805c0-0.093-0.045-0.14-0.135-0.14
					c-0.104,0-0.156,0.047-0.156,0.14v0.805c0,0.027-0.036,0.054-0.11,0.08C7.144-477.084,7.029-477.06,6.902-477.06z"/>
			</g>
		</g>
	</g>
	<g transform="matrix( 1.130340576171875, 0, 0, 1.130340576171875, -583.45,-21.35) ">
		<g>
			<g id="Symbol_3_0_Layer0_0_MEMBER_0_MEMBER_2_MEMBER_2_FILL">
				<path fill="#A9D4C8" d="M9.327-478.945c0-0.13-0.07-0.232-0.21-0.305c-0.137-0.083-0.317-0.125-0.54-0.125
					c-0.213,0-0.394,0.041-0.54,0.125c-0.14,0.083-0.21,0.185-0.21,0.305c0,0.13,0.07,0.237,0.21,0.32
					c0.147,0.083,0.327,0.125,0.54,0.125h0.015c0.213,0,0.388-0.041,0.525-0.125C9.257-478.709,9.327-478.815,9.327-478.945
					 M8.923-479.03c0.076,0.036,0.115,0.065,0.115,0.085c0,0.027-0.038,0.058-0.115,0.095c-0.08,0.04-0.19,0.06-0.33,0.06v0.15
					l-0.015-0.15c-0.13,0-0.245-0.023-0.345-0.07c-0.073-0.03-0.11-0.058-0.11-0.085c0-0.02,0.036-0.048,0.11-0.085
					c0.1-0.037,0.215-0.055,0.345-0.055C8.717-479.085,8.832-479.067,8.923-479.03z"/>
			</g>
		</g>
	</g>
	<g transform="matrix( 1.130340576171875, 0, 0, 1.130340576171875, -583.45,-21.35) ">
		<g>
			<g id="Symbol_3_0_Layer0_0_MEMBER_0_MEMBER_2_MEMBER_3_FILL">
				<path fill="#A9D4C8" d="M9.327-478.125v-0.805c0-0.103-0.047-0.155-0.14-0.155c-0.1,0-0.15,0.047-0.15,0.14v0.82
					c0,0.017-0.038,0.044-0.115,0.08c-0.09,0.036-0.205,0.055-0.345,0.055c-0.137,0-0.252-0.022-0.345-0.065
					c-0.073-0.03-0.11-0.058-0.11-0.085v-0.805c0-0.093-0.047-0.14-0.14-0.14c-0.104,0-0.156,0.047-0.156,0.14v0.805
					c0,0.13,0.07,0.237,0.21,0.32c0.147,0.084,0.327,0.125,0.54,0.125c0.213,0,0.393-0.041,0.54-0.125
					C9.257-477.903,9.327-478.005,9.327-478.125z"/>
			</g>
		</g>
	</g>
	<g transform="matrix( 1.130340576171875, 0, 0, 1.130340576171875, -583.45,-21.35) ">
		<g>
			<g id="Symbol_3_0_Layer0_0_MEMBER_0_MEMBER_2_MEMBER_4_FILL">
				<path fill="#A9D4C8" d="M5.762-479.235c-0.137-0.083-0.317-0.125-0.54-0.125c-0.213,0-0.393,0.041-0.54,0.125
					c-0.14,0.083-0.21,0.185-0.21,0.305c0,0.083,0.037,0.162,0.11,0.235c0.14,0.14,0.353,0.21,0.64,0.21h0.015
					c0.213,0,0.388-0.042,0.525-0.125c0.14-0.077,0.21-0.178,0.21-0.305C5.972-479.045,5.902-479.152,5.762-479.235 M5.678-478.915
					c0,0.016-0.037,0.043-0.11,0.08c-0.09,0.037-0.2,0.055-0.33,0.055v0.155l-0.015-0.155c-0.194,0-0.342-0.041-0.445-0.125
					l-0.015-0.025c0-0.02,0.038-0.048,0.115-0.085c0.1-0.037,0.215-0.055,0.345-0.055c0.14,0,0.255,0.018,0.345,0.055
					C5.641-478.978,5.678-478.945,5.678-478.915z"/>
			</g>
		</g>
	</g>
	<g transform="matrix( 1.130340576171875, 0, 0, 1.130340576171875, -583.45,-21.35) ">
		<g>
			<g id="Symbol_3_0_Layer0_0_MEMBER_0_MEMBER_2_MEMBER_5_FILL">
				<path fill="#A9D4C8" d="M5.972-478.115v-0.8c0-0.104-0.047-0.155-0.14-0.155c-0.103,0-0.155,0.047-0.155,0.14v0.815
					c0,0.02-0.037,0.048-0.11,0.085c-0.09,0.037-0.205,0.055-0.345,0.055c-0.14,0-0.255-0.019-0.345-0.055
					c-0.077-0.036-0.115-0.068-0.115-0.095v-0.805c0-0.093-0.045-0.14-0.135-0.14c-0.103,0-0.155,0.047-0.155,0.14v0.805
					c0,0.127,0.07,0.232,0.21,0.315c0.147,0.083,0.327,0.125,0.54,0.125s0.393-0.042,0.54-0.125
					C5.902-477.893,5.972-477.995,5.972-478.115z"/>
			</g>
		</g>
	</g>
	<g transform="matrix( 1.130340576171875, 0, 0, 1.130340576171875, -583.45,-21.35) ">
		<g>
			<g id="Symbol_3_0_Layer0_0_MEMBER_0_MEMBER_2_MEMBER_6_FILL">
				<path fill="#A9D4C8" d="M6.347-480.18c-0.14,0.083-0.215,0.19-0.225,0.32c0,0.12,0.07,0.222,0.21,0.305
					c0.146,0.083,0.327,0.125,0.54,0.125h0.015c0.213,0,0.394-0.042,0.54-0.125c0.14-0.083,0.21-0.185,0.21-0.305
					c0-0.13-0.07-0.237-0.21-0.32c-0.146-0.083-0.331-0.125-0.555-0.125C6.659-480.305,6.484-480.264,6.347-480.18 M6.412-479.86
					c0-0.02,0.038-0.048,0.115-0.085c0.1-0.047,0.22-0.07,0.36-0.07c0.13,0,0.245,0.023,0.345,0.07
					c0.073,0.037,0.11,0.065,0.11,0.085c0,0.02-0.037,0.048-0.11,0.085c-0.1,0.037-0.215,0.055-0.345,0.055v0.15l-0.015-0.15
					c-0.13,0-0.245-0.018-0.345-0.055C6.451-479.812,6.412-479.84,6.412-479.86z"/>
			</g>
		</g>
	</g>
	<g transform="matrix( 1.130340576171875, 0, 0, 1.130340576171875, -583.45,-21.35) ">
		<g>
			<g id="Symbol_3_0_Layer0_0_MEMBER_0_MEMBER_2_MEMBER_7_FILL">
				<path fill="#A9D4C8" d="M6.412-479.86c0-0.103-0.045-0.155-0.135-0.155c-0.103,0-0.155,0.052-0.155,0.155v0.805
					c0,0.13,0.07,0.237,0.21,0.32c0.146,0.083,0.327,0.125,0.54,0.125h0.015c0.287,0,0.499-0.07,0.635-0.21
					c0.067-0.064,0.1-0.142,0.1-0.235l0.015-0.805c0-0.083-0.052-0.135-0.155-0.155c-0.093,0-0.14,0.052-0.14,0.155l-0.01,0.805
					l-0.015,0.025c-0.067,0.067-0.215,0.108-0.445,0.125c-0.13,0-0.245-0.023-0.345-0.07c-0.076-0.027-0.115-0.054-0.115-0.08
					V-479.86z"/>
			</g>
		</g>
	</g>
	<g transform="matrix( 1.130340576171875, 0, 0, 1.130340576171875, -583.45,-21.35) ">
		<g>
			<g id="Symbol_3_0_Layer0_0_MEMBER_0_MEMBER_2_MEMBER_8_FILL">
				<path fill="#A9D4C8" d="M4.152-479.5c0.14-0.084,0.21-0.19,0.21-0.321c0-0.073-0.037-0.146-0.11-0.219
					c-0.12-0.14-0.338-0.21-0.655-0.21c-0.21,0-0.39,0.042-0.54,0.125c-0.137,0.084-0.205,0.185-0.205,0.305
					c0,0.13,0.068,0.237,0.205,0.321c0.15,0.083,0.33,0.125,0.54,0.125h0.015C3.826-479.375,4.006-479.417,4.152-479.5
					 M4.042-479.83l0.03,0.01c0,0.03-0.037,0.059-0.11,0.086c-0.104,0.047-0.22,0.07-0.35,0.07v0.14l-0.015-0.14
					c-0.127,0-0.241-0.023-0.345-0.07c-0.073-0.027-0.11-0.055-0.11-0.086c0-0.016,0.037-0.043,0.11-0.079
					c0.103-0.037,0.223-0.055,0.36-0.055C3.836-479.955,3.979-479.914,4.042-479.83z"/>
			</g>
		</g>
	</g>
	<g transform="matrix( 1.130340576171875, 0, 0, 1.130340576171875, -583.45,-21.35) ">
		<g>
			<g id="Symbol_3_0_Layer0_0_MEMBER_0_MEMBER_2_MEMBER_9_FILL">
				<path fill="#A9D4C8" d="M3.002-479.955c-0.1,0-0.15,0.045-0.15,0.135v0.805c0,0.083,0.036,0.162,0.11,0.235
					c0.137,0.14,0.349,0.21,0.635,0.21h0.015c0.287,0,0.5-0.07,0.64-0.21c0.064-0.063,0.095-0.137,0.095-0.22l0.015-0.805
					c0-0.1-0.05-0.15-0.15-0.15c-0.093,0-0.14,0.045-0.14,0.135L4.057-479l-0.015,0.015c-0.063,0.083-0.206,0.125-0.43,0.125H3.597
					c-0.21,0-0.356-0.042-0.44-0.125l-0.015-0.03v-0.805C3.142-479.91,3.096-479.955,3.002-479.955z"/>
			</g>
		</g>
	</g>
	<g transform="matrix( 1.130340576171875, 0, 0, 1.130340576171875, -583.45,-21.35) ">
		<g>
			<g id="Symbol_3_0_Layer0_0_MEMBER_0_MEMBER_2_MEMBER_10_FILL">
				<path fill="#A9D4C8" d="M4.542-480.75c0,0.093,0.032,0.173,0.095,0.24c0.13,0.137,0.348,0.205,0.655,0.205
					c0.213,0,0.394-0.041,0.54-0.125c0.14-0.083,0.21-0.185,0.21-0.305c0-0.13-0.07-0.237-0.21-0.32
					c-0.146-0.08-0.332-0.12-0.555-0.12c-0.213,0-0.389,0.04-0.525,0.12C4.612-480.972,4.542-480.87,4.542-480.75 M4.833-480.735
					c0-0.026,0.036-0.058,0.11-0.095c0.093-0.036,0.21-0.055,0.35-0.055c0.13,0,0.245,0.023,0.345,0.07
					c0.073,0.037,0.11,0.063,0.11,0.08c0,0.02-0.037,0.048-0.11,0.085c-0.1,0.037-0.215,0.055-0.345,0.055
					c-0.233,0-0.382-0.041-0.445-0.125L4.833-480.735z"/>
			</g>
		</g>
	</g>
	<g transform="matrix( 1.130340576171875, 0, 0, 1.130340576171875, -583.45,-21.35) ">
		<g>
			<g id="Symbol_3_0_Layer0_0_MEMBER_0_MEMBER_2_MEMBER_11_FILL">
				<path fill="#A9D4C8" d="M6.042-480.735c0-0.1-0.051-0.15-0.155-0.15c-0.093,0-0.14,0.05-0.14,0.15v0.805
					c0,0.027-0.037,0.055-0.11,0.085c-0.1,0.047-0.215,0.07-0.345,0.07H5.278c-0.203,0-0.347-0.042-0.43-0.125l-0.025-0.03
					l0.01-0.805c0-0.1-0.05-0.15-0.15-0.15c-0.093,0-0.14,0.045-0.14,0.135l-0.015,0.82c0,0.073,0.037,0.147,0.11,0.22
					c0.124,0.13,0.337,0.205,0.64,0.225h0.015c0.213,0,0.394-0.041,0.54-0.125c0.14-0.083,0.21-0.19,0.21-0.32V-480.735z"/>
			</g>
		</g>
	</g>
	<g transform="matrix( 1.130340576171875, 0, 0, 1.130340576171875, -583.45,-21.35) ">
		<g>
			<g id="Symbol_3_0_Layer0_0_MEMBER_0_MEMBER_2_MEMBER_12_FILL">
				<path fill="#A9D4C8" d="M1.948-481.135c-0.21,0-0.385,0.042-0.525,0.125c-0.14,0.083-0.21,0.19-0.21,0.32
					c0,0.127,0.07,0.229,0.21,0.305c0.14,0.084,0.32,0.125,0.54,0.125c0.213,0,0.393-0.041,0.54-0.125
					c0.14-0.083,0.21-0.185,0.21-0.305c0-0.13-0.07-0.236-0.21-0.32C2.356-481.093,2.171-481.135,1.948-481.135 M1.963-480.555
					c-0.137,0-0.252-0.018-0.345-0.055c-0.073-0.037-0.11-0.064-0.11-0.08c0-0.03,0.037-0.058,0.11-0.085
					c0.093-0.047,0.208-0.07,0.345-0.07c0.13,0,0.246,0.023,0.35,0.07c0.073,0.037,0.11,0.065,0.11,0.085
					c0,0.017-0.036,0.044-0.11,0.08C2.209-480.573,2.092-480.555,1.963-480.555z"/>
			</g>
		</g>
	</g>
	<g transform="matrix( 1.130340576171875, 0, 0, 1.130340576171875, -583.45,-21.35) ">
		<g>
			<g id="Symbol_3_0_Layer0_0_MEMBER_0_MEMBER_2_MEMBER_13_FILL">
				<path fill="#A9D4C8" d="M2.713-480.69c0-0.103-0.052-0.155-0.155-0.155c-0.09,0-0.135,0.052-0.135,0.155v0.8
					c-0.02,0.03-0.053,0.059-0.1,0.086c-0.11,0.047-0.235,0.07-0.375,0.07c-0.127,0-0.242-0.023-0.345-0.07
					c-0.073-0.027-0.11-0.055-0.11-0.086l0.015-0.8c0-0.103-0.052-0.155-0.155-0.155c-0.094,0-0.14,0.052-0.14,0.155l-0.01,0.8
					c0,0.12,0.068,0.222,0.205,0.305c0.15,0.084,0.33,0.13,0.54,0.14h0.015c0.166,0,0.328-0.032,0.485-0.095
					c0.177-0.083,0.265-0.2,0.265-0.35V-480.69z"/>
			</g>
		</g>
	</g>
	<g transform="matrix( 1.130340576171875, 0, 0, 1.130340576171875, -583.45,-21.35) ">
		<g>
			<g id="Symbol_3_0_Layer0_0_MEMBER_0_MEMBER_2_MEMBER_14_FILL">
				<path fill="#A9D4C8" d="M3.657-482.065c-0.213,0-0.395,0.041-0.545,0.125c-0.137,0.083-0.205,0.19-0.205,0.32
					c0,0.13,0.068,0.237,0.205,0.32c0.15,0.084,0.332,0.125,0.545,0.125c0.21,0,0.39-0.041,0.54-0.125
					c0.137-0.083,0.205-0.19,0.205-0.32c0-0.12-0.068-0.222-0.205-0.305C4.057-482.008,3.877-482.055,3.657-482.065 M3.657-481.775
					c0.137,0.01,0.252,0.033,0.345,0.07c0.073,0.037,0.11,0.065,0.11,0.085c0,0.027-0.036,0.053-0.11,0.08
					c-0.093,0.047-0.208,0.07-0.345,0.07c-0.13,0-0.247-0.023-0.35-0.07c-0.073-0.027-0.11-0.053-0.11-0.08
					c0-0.02,0.037-0.048,0.11-0.085C3.411-481.752,3.527-481.775,3.657-481.775z"/>
			</g>
		</g>
	</g>
	<g transform="matrix( 3.135009765625, 0, 0, 3.135009765625, -437.1,-95.45) ">
		<g>
			<g id="Symbol_3_0_Layer0_0_MEMBER_0_MEMBER_2_MEMBER_15_FILL">
				<path fill="#A9D4C8" d="M-45.171-149.609c0.05-0.03,0.075-0.067,0.075-0.11v-0.295c0-0.033-0.017-0.05-0.05-0.05
					c-0.037,0-0.055,0.017-0.055,0.05v0.29c0,0.01-0.013,0.021-0.04,0.035c-0.033,0.013-0.075,0.02-0.125,0.02
					c-0.05,0-0.092-0.008-0.125-0.025c-0.027-0.01-0.04-0.02-0.04-0.03v-0.29c0-0.033-0.017-0.05-0.05-0.05h-0.005
					c-0.033,0-0.05,0.017-0.05,0.05v0.29c0,0.047,0.025,0.085,0.075,0.115c0.05,0.03,0.115,0.045,0.195,0.045
					C-45.289-149.564-45.224-149.58-45.171-149.609z"/>
			</g>
		</g>
	</g>
	<g transform="matrix( 3.135009765625, 0, 0, 3.135009765625, -437.1,-95.45) ">
		<g>
			<g id="Symbol_3_0_Layer0_0_MEMBER_0_MEMBER_2_MEMBER_16_FILL">
				<path fill="#A9D4C8" d="M-44.215-147.959c0.037,0,0.06-0.013,0.07-0.04c0.013-0.02,0.017-0.04,0.01-0.06
					c-0.007-0.023-0.02-0.04-0.04-0.05l-2.475-1.34c-0.043-0.023-0.08-0.012-0.11,0.035c-0.023,0.043-0.012,0.08,0.035,0.11
					l2.475,1.335C-44.244-147.963-44.232-147.959-44.215-147.959z"/>
			</g>
		</g>
	</g>
	<g transform="matrix( 1.130340576171875, 0, 0, 1.130340576171875, -583.45,-21.35) ">
		<g>
			<g id="Symbol_3_0_Layer0_0_MEMBER_0_MEMBER_2_MEMBER_17_FILL">
				<path fill="#A9D4C8" d="M2.558-480.635l0.085-0.015l0.405-0.165c0.146-0.067,0.187-0.165,0.12-0.295
					c-0.044-0.127-0.135-0.168-0.275-0.125l-0.415,0.17c-0.13,0.047-0.172,0.143-0.125,0.29
					C2.379-480.682,2.447-480.635,2.558-480.635z"/>
			</g>
		</g>
	</g>
	<g transform="matrix( 1.130340576171875, 0, 0, 1.130340576171875, -583.45,-21.35) ">
		<g>
			<g id="Symbol_3_0_Layer0_0_MEMBER_0_MEMBER_2_MEMBER_18_FILL">
				<path fill="#A9D4C8" d="M4.457-481.15c-0.053-0.027-0.108-0.032-0.165-0.015c-0.064,0.02-0.11,0.053-0.14,0.1
					c-0.026,0.054-0.03,0.114-0.01,0.18c0.016,0.053,0.054,0.095,0.11,0.125l0.265,0.135c0.027,0.02,0.064,0.03,0.11,0.03
					c0.083,0,0.148-0.036,0.195-0.11c0.027-0.057,0.03-0.111,0.01-0.165c-0.017-0.067-0.054-0.113-0.111-0.14L4.457-481.15z"/>
			</g>
		</g>
	</g>
	<g transform="matrix( 1.130340576171875, 0, 0, 1.130340576171875, -583.45,-21.35) ">
		<g>
			<g id="Symbol_3_0_Layer0_0_MEMBER_0_MEMBER_2_MEMBER_19_FILL">
				<path fill="#A9D4C8" d="M6.263-479.765c0.083,0,0.148-0.037,0.195-0.11c0.027-0.054,0.032-0.109,0.015-0.165
					c-0.02-0.064-0.058-0.11-0.115-0.14l-0.25-0.14c-0.127-0.064-0.223-0.03-0.29,0.1c-0.084,0.13-0.055,0.227,0.085,0.29l0.25,0.14
					L6.263-479.765z"/>
			</g>
		</g>
	</g>
	<g transform="matrix( 1.130340576171875, 0, 0, 1.130340576171875, -583.45,-21.35) ">
		<g>
			<g id="Symbol_3_0_Layer0_0_MEMBER_0_MEMBER_2_MEMBER_20_FILL">
				<path fill="#A9D4C8" d="M7.983-478.89c0.083,0,0.148-0.042,0.195-0.125c0.026-0.054,0.03-0.108,0.01-0.165
					c-0.016-0.067-0.054-0.113-0.11-0.14l-0.385-0.18c-0.14-0.064-0.242-0.03-0.305,0.1c-0.067,0.127-0.03,0.223,0.11,0.29
					l0.385,0.195L7.983-478.89z"/>
			</g>
		</g>
	</g>
	<g transform="matrix( 1.130340576171875, 0, 0, 1.130340576171875, -583.45,-21.35) ">
		<g>
			<g id="Symbol_3_0_Layer0_0_MEMBER_0_MEMBER_2_MEMBER_21_FILL">
				<path fill="#A9D4C8" d="M0.218-476.005v-3.705l1.12-0.44c0.15-0.047,0.192-0.145,0.125-0.295
					c-0.047-0.127-0.138-0.167-0.275-0.12l-1.275,0.495c-0.093,0.047-0.14,0.117-0.14,0.21v3.98c0,0.083,0.036,0.148,0.11,0.195
					l6.85,3.8l0.11,0.025l0.115-0.025c0.073-0.047,0.11-0.111,0.11-0.195v-3.925l3.23-1.79c0.13-0.083,0.159-0.185,0.085-0.305
					c-0.03-0.053-0.071-0.09-0.125-0.11c-0.067-0.02-0.127-0.01-0.18,0.03l-3.33,1.855c-0.083,0.047-0.125,0.111-0.125,0.195v3.675
					L0.218-476.005z"/>
			</g>
		</g>
	</g>
	<g transform="matrix( 1.130340576171875, 0, 0, 1.130340576171875, -583.45,-21.35) ">
		<g>
			<g id="Symbol_3_0_Layer0_0_MEMBER_0_MEMBER_2_MEMBER_22_FILL">
				<path fill="#A9D4C8" d="M10.407-477.99c0-0.09-0.042-0.159-0.125-0.205l-0.915-0.445c-0.12-0.063-0.217-0.032-0.29,0.095
					c-0.027,0.057-0.032,0.118-0.015,0.185c0.02,0.054,0.056,0.093,0.11,0.12l0.79,0.39v3.635l-3.23,1.94
					c-0.13,0.083-0.157,0.185-0.08,0.304c0.044,0.074,0.107,0.111,0.19,0.111l0.115-0.025l3.34-2.01
					c0.073-0.047,0.11-0.111,0.11-0.195V-477.99z"/>
			</g>
		</g>
	</g>
	<g transform="matrix( 0.3513031005859375, 0, 0, 0.3513031005859375, -391.6,106.25) ">
		<g>
			<g id="Symbol_3_0_Layer0_0_MEMBER_0_MEMBER_3_MEMBER_0_FILL">
				<path fill="#A9D4C8" d="M-531.163-1853.298c0.114,0.12,0.256,0.181,0.425,0.181c0.167,0,0.306-0.061,0.42-0.181
					c0.12-0.114,0.181-0.253,0.181-0.42c0-0.172-0.061-0.311-0.181-0.425c-0.11-0.117-0.25-0.175-0.42-0.175
					s-0.311,0.058-0.425,0.175c-0.117,0.114-0.175,0.253-0.175,0.425C-531.338-1853.548-531.28-1853.406-531.163-1853.298z"/>
			</g>
		</g>
	</g>
	<g transform="matrix( 0.3513031005859375, 0, 0, 0.3513031005859375, -391.6,106.25) ">
		<g>
			<g id="Symbol_3_0_Layer0_0_MEMBER_0_MEMBER_3_MEMBER_1_FILL">
				<path fill="#A9D4C8" d="M-529.244-1853.298c0.114,0.12,0.256,0.181,0.425,0.181c0.167,0,0.307-0.061,0.42-0.181
					c0.121-0.114,0.181-0.253,0.181-0.42c0-0.172-0.06-0.311-0.181-0.425c-0.11-0.117-0.249-0.175-0.42-0.175
					c-0.17,0-0.311,0.058-0.425,0.175c-0.115,0.114-0.174,0.253-0.174,0.425C-529.417-1853.548-529.359-1853.406-529.244-1853.298z"
					/>
			</g>
		</g>
	</g>
	<g transform="matrix( 0.3513031005859375, 0, 0, 0.3513031005859375, -391.6,106.25) ">
		<g>
			<g id="Symbol_3_0_Layer0_0_MEMBER_0_MEMBER_3_MEMBER_2_FILL">
				<path fill="#A9D4C8" d="M-527.324-1853.298c0.114,0.12,0.254,0.181,0.421,0.181c0.17,0,0.311-0.061,0.424-0.181
					c0.117-0.108,0.175-0.25,0.175-0.42c0-0.172-0.058-0.311-0.175-0.425c-0.108-0.117-0.25-0.175-0.424-0.175
					c-0.167,0-0.307,0.058-0.421,0.175c-0.12,0.114-0.179,0.253-0.179,0.425C-527.503-1853.551-527.444-1853.411-527.324-1853.298z"
					/>
			</g>
		</g>
	</g>
	<g transform="matrix( 0.3513031005859375, 0, 0, 0.3513031005859375, -391.6,106.25) ">
		<g>
			<g id="Symbol_3_0_Layer0_0_MEMBER_0_MEMBER_3_MEMBER_3_FILL">
				<path fill="#A9D4C8" d="M-499.593-1854.143c-0.117-0.117-0.259-0.175-0.425-0.175h-24.321c-0.167,0-0.309,0.058-0.425,0.175
					c-0.117,0.117-0.175,0.259-0.175,0.425s0.058,0.306,0.175,0.422c0.117,0.117,0.259,0.178,0.425,0.178h24.321
					c0.167,0,0.309-0.061,0.425-0.178c0.117-0.117,0.175-0.256,0.175-0.422S-499.476-1854.026-499.593-1854.143z"/>
			</g>
		</g>
	</g>
	<g transform="matrix( 0.3513031005859375, 0, 0, 0.3513031005859375, -391.6,106.25) ">
		<g>
			<g id="Symbol_3_0_Layer0_0_MEMBER_0_MEMBER_3_MEMBER_4_FILL">
				<path fill="#A9D4C8" d="M-495.758-1854.143c-0.117-0.117-0.259-0.175-0.425-0.175h-1.28c-0.167,0-0.309,0.058-0.425,0.175
					c-0.117,0.117-0.175,0.259-0.175,0.425s0.058,0.306,0.175,0.422c0.12,0.117,0.261,0.178,0.425,0.178h1.28
					c0.167,0,0.309-0.061,0.425-0.178c0.115-0.117,0.174-0.256,0.174-0.422S-495.642-1854.026-495.758-1854.143z"/>
			</g>
		</g>
	</g>
	<g transform="matrix( 0.3513031005859375, 0, 0, 0.3513031005859375, -391.6,106.25) ">
		<g>
			<g id="Symbol_3_0_Layer0_0_MEMBER_0_MEMBER_3_MEMBER_5_FILL">
				<path fill="#A9D4C8" d="M-515.143-1847.552c-0.243-0.245-0.535-0.367-0.876-0.367h-12.8c-0.343,0-0.637,0.122-0.88,0.367
					c-0.243,0.239-0.364,0.528-0.364,0.867v2.569c0,0.339,0.121,0.628,0.364,0.873c0.243,0.239,0.536,0.361,0.88,0.361h12.8
					c0.341,0,0.632-0.122,0.876-0.361c0.239-0.245,0.36-0.534,0.36-0.873v-2.569
					C-514.783-1847.023-514.904-1847.313-515.143-1847.552 M-515.982-1846.684v2.569c0,0.022-0.013,0.033-0.036,0.033h-12.8
					c-0.029,0-0.046-0.011-0.046-0.033v-2.569c0-0.022,0.017-0.033,0.046-0.033h12.8
					C-515.995-1846.718-515.982-1846.707-515.982-1846.684z"/>
			</g>
		</g>
	</g>
	<g transform="matrix( 0.3513031005859375, 0, 0, 0.3513031005859375, -391.6,106.25) ">
		<g>
			<g id="Symbol_3_0_Layer0_0_MEMBER_0_MEMBER_3_MEMBER_6_FILL">
				<path fill="#A9D4C8" d="M-496.863-1845.397c0-0.167-0.058-0.309-0.175-0.425c-0.117-0.117-0.259-0.175-0.425-0.175h-3.975
					c-0.126-0.375-0.352-0.684-0.675-0.92c-0.329-0.245-0.698-0.367-1.104-0.367c-0.411,0-0.781,0.122-1.111,0.367
					c-0.324,0.236-0.549,0.545-0.676,0.92h-1.415c-0.167,0-0.307,0.058-0.424,0.175c-0.117,0.117-0.175,0.259-0.175,0.425
					c0,0.167,0.058,0.308,0.175,0.425c0.117,0.117,0.257,0.172,0.424,0.172h1.415c0.126,0.378,0.352,0.684,0.676,0.923
					c0.329,0.239,0.699,0.359,1.111,0.359c0.406,0,0.774-0.12,1.104-0.359c0.324-0.239,0.549-0.545,0.675-0.923h3.975
					c0.167,0,0.309-0.056,0.425-0.172C-496.921-1845.089-496.863-1845.23-496.863-1845.397 M-502.738-1844.916
					c-0.133,0.133-0.293,0.2-0.48,0.2c-0.188,0-0.347-0.067-0.481-0.2c-0.133-0.133-0.2-0.295-0.2-0.481
					c0-0.186,0.067-0.348,0.2-0.487c0.133-0.133,0.293-0.2,0.481-0.2c0.186,0,0.346,0.067,0.48,0.2c0.133,0.139,0.2,0.3,0.2,0.487
					C-502.538-1845.211-502.604-1845.05-502.738-1844.916z"/>
			</g>
		</g>
	</g>
	<g transform="matrix( 0.3513031005859375, 0, 0, 0.3513031005859375, -391.6,106.25) ">
		<g>
			<g id="Symbol_3_0_Layer0_0_MEMBER_0_MEMBER_3_MEMBER_7_FILL">
				<path fill="#A9D4C8" d="M-510.898-1847.919c-0.694,0-1.287,0.247-1.78,0.739c-0.493,0.495-0.739,1.09-0.739,1.782
					c0,0.692,0.246,1.284,0.739,1.776s1.087,0.739,1.78,0.739s1.284-0.247,1.775-0.739c0.493-0.492,0.741-1.084,0.741-1.776
					c0-0.692-0.247-1.287-0.741-1.782C-509.614-1847.671-510.205-1847.919-510.898-1847.919 M-509.968-1844.466
					c-0.257,0.256-0.566,0.384-0.93,0.384s-0.676-0.128-0.935-0.384c-0.257-0.259-0.385-0.567-0.385-0.931
					c0-0.364,0.128-0.676,0.385-0.937c0.26-0.256,0.571-0.384,0.935-0.384s0.673,0.128,0.93,0.384
					c0.257,0.261,0.385,0.573,0.385,0.937C-509.583-1845.033-509.711-1844.725-509.968-1844.466z"/>
			</g>
		</g>
	</g>
	<g transform="matrix( 0.3513031005859375, 0, 0, 0.3513031005859375, -391.6,106.25) ">
		<g>
			<g id="Symbol_3_0_Layer0_0_MEMBER_0_MEMBER_3_MEMBER_8_FILL">
				<path fill="#A9D4C8" d="M-515.143-1840.519c-0.243-0.242-0.535-0.364-0.876-0.364h-12.8c-0.343,0-0.637,0.122-0.88,0.364
					c-0.243,0.245-0.364,0.536-0.364,0.876v2.56c0,0.345,0.121,0.634,0.364,0.876c0.243,0.242,0.536,0.364,0.88,0.364h12.8
					c0.341,0,0.632-0.122,0.876-0.364c0.239-0.242,0.36-0.531,0.36-0.876v-2.56
					C-514.783-1839.982-514.904-1840.274-515.143-1840.519 M-516.019-1839.679c0.024,0,0.036,0.011,0.036,0.036v2.56
					c0,0.028-0.013,0.039-0.036,0.039h-12.8c-0.029,0-0.046-0.011-0.046-0.039v-2.56c0-0.025,0.017-0.036,0.046-0.036H-516.019z"/>
			</g>
		</g>
	</g>
	<g transform="matrix( 0.3513031005859375, 0, 0, 0.3513031005859375, -391.6,106.25) ">
		<g>
			<g id="Symbol_3_0_Layer0_0_MEMBER_0_MEMBER_3_MEMBER_9_FILL">
				<path fill="#A9D4C8" d="M-500.023-1840.244c-0.406,0-0.776,0.122-1.105,0.364c-0.324,0.234-0.549,0.539-0.674,0.917h-4.616
					c-0.167,0-0.307,0.056-0.424,0.172c-0.117,0.117-0.175,0.261-0.175,0.428c0,0.167,0.058,0.306,0.175,0.423
					c0.117,0.117,0.257,0.178,0.424,0.178h4.616c0.125,0.375,0.35,0.681,0.674,0.917c0.329,0.239,0.699,0.361,1.105,0.361
					c0.41,0,0.781-0.122,1.111-0.361c0.324-0.236,0.548-0.542,0.674-0.917h0.781c0.167,0,0.309-0.061,0.425-0.178
					c0.117-0.117,0.174-0.256,0.174-0.423c0-0.167-0.057-0.311-0.174-0.428c-0.121-0.117-0.264-0.172-0.431-0.172h-0.776
					c-0.129-0.378-0.354-0.684-0.674-0.917C-499.242-1840.121-499.613-1840.244-500.023-1840.244 M-499.542-1837.883
					c-0.133,0.133-0.295,0.2-0.481,0.2s-0.346-0.067-0.48-0.2s-0.2-0.295-0.2-0.478c0-0.189,0.067-0.347,0.2-0.481
					s0.293-0.2,0.48-0.2s0.347,0.067,0.481,0.2c0.133,0.133,0.2,0.292,0.2,0.481
					C-499.342-1838.178-499.409-1838.017-499.542-1837.883z"/>
			</g>
		</g>
	</g>
	<g transform="matrix( 0.3513031005859375, 0, 0, 0.3513031005859375, -391.6,106.25) ">
		<g>
			<g id="Symbol_3_0_Layer0_0_MEMBER_0_MEMBER_3_MEMBER_10_FILL">
				<path fill="#A9D4C8" d="M-512.679-1840.143c-0.493,0.492-0.739,1.087-0.739,1.782s0.246,1.29,0.739,1.779
					c0.493,0.495,1.087,0.739,1.78,0.739s1.284-0.245,1.775-0.739c0.493-0.495,0.741-1.087,0.741-1.779
					c0-0.695-0.247-1.29-0.741-1.782c-0.491-0.492-1.081-0.739-1.775-0.739S-512.185-1840.635-512.679-1840.143 M-510.898-1839.679
					c0.364,0,0.673,0.128,0.93,0.386c0.257,0.258,0.385,0.567,0.385,0.931c0,0.361-0.128,0.673-0.385,0.934
					c-0.257,0.256-0.566,0.384-0.93,0.384s-0.676-0.128-0.935-0.384c-0.257-0.256-0.385-0.567-0.385-0.934
					c0-0.364,0.128-0.673,0.385-0.931C-511.574-1839.551-511.262-1839.679-510.898-1839.679z"/>
			</g>
		</g>
	</g>
	<g transform="matrix( 0.3513031005859375, 0, 0, 0.3513031005859375, -391.6,106.25) ">
		<g>
			<g id="Symbol_3_0_Layer0_0_MEMBER_0_MEMBER_3_MEMBER_11_FILL">
				<path fill="#A9D4C8" d="M-528.818-1833.842c-0.343,0-0.637,0.122-0.88,0.364c-0.243,0.242-0.364,0.536-0.364,0.881v2.552
					c0,0.345,0.121,0.639,0.364,0.881c0.243,0.242,0.536,0.364,0.88,0.364h12.8c0.341,0,0.632-0.122,0.876-0.364
					c0.239-0.242,0.36-0.536,0.36-0.881v-2.552c0-0.345-0.121-0.639-0.36-0.881c-0.243-0.242-0.535-0.364-0.876-0.364H-528.818
					 M-528.864-1832.596c0-0.033,0.017-0.047,0.046-0.047h12.8c0.024,0,0.036,0.014,0.036,0.047v2.552
					c0,0.033-0.013,0.045-0.036,0.045h-12.8c-0.029,0-0.046-0.011-0.046-0.045V-1832.596z"/>
			</g>
		</g>
	</g>
	<g transform="matrix( 0.3513031005859375, 0, 0, 0.3513031005859375, -391.6,106.25) ">
		<g>
			<g id="Symbol_3_0_Layer0_0_MEMBER_0_MEMBER_3_MEMBER_12_FILL">
				<path fill="#A9D4C8" d="M-500.799-1830.717h3.336c0.167,0,0.309-0.061,0.425-0.178c0.117-0.114,0.175-0.256,0.175-0.422
					c0-0.167-0.058-0.309-0.175-0.425c-0.117-0.117-0.259-0.175-0.425-0.175h-3.336c-0.125-0.378-0.35-0.684-0.674-0.92
					c-0.329-0.242-0.699-0.359-1.111-0.359c-0.406,0-0.774,0.117-1.104,0.359c-0.325,0.236-0.549,0.542-0.676,0.92h-2.056
					c-0.167,0-0.307,0.058-0.424,0.175c-0.117,0.117-0.175,0.259-0.175,0.425c0,0.167,0.058,0.308,0.175,0.422
					c0.117,0.117,0.257,0.178,0.424,0.178h2.056c0.126,0.373,0.35,0.678,0.676,0.915c0.329,0.239,0.698,0.359,1.104,0.359
					c0.411,0,0.781-0.12,1.111-0.359C-501.149-1830.036-500.924-1830.342-500.799-1830.717 M-502.103-1830.845
					c-0.133,0.133-0.295,0.2-0.481,0.2s-0.346-0.067-0.48-0.2c-0.133-0.128-0.2-0.286-0.2-0.473c0-0.189,0.067-0.348,0.2-0.481
					c0.133-0.133,0.293-0.2,0.48-0.2s0.347,0.067,0.481,0.2s0.2,0.292,0.2,0.481
					C-501.903-1831.131-501.969-1830.973-502.103-1830.845z"/>
			</g>
		</g>
	</g>
	<g transform="matrix( 0.3513031005859375, 0, 0, 0.3513031005859375, -391.6,106.25) ">
		<g>
			<g id="Symbol_3_0_Layer0_0_MEMBER_0_MEMBER_3_MEMBER_13_FILL">
				<path fill="#A9D4C8" d="M-509.123-1829.538c0.493-0.495,0.741-1.084,0.741-1.779c0-0.695-0.247-1.29-0.741-1.785
					c-0.491-0.495-1.081-0.74-1.775-0.74s-1.287,0.245-1.78,0.74c-0.493,0.492-0.739,1.087-0.739,1.785
					c0,0.695,0.246,1.284,0.739,1.779c0.493,0.495,1.087,0.739,1.78,0.739S-509.614-1829.044-509.123-1829.538 M-510.898-1832.643
					c0.364,0,0.673,0.131,0.93,0.392c0.257,0.259,0.385,0.57,0.385,0.934c0,0.361-0.128,0.673-0.385,0.928
					c-0.257,0.261-0.566,0.389-0.93,0.389s-0.676-0.128-0.935-0.389c-0.257-0.256-0.385-0.567-0.385-0.928
					c0-0.367,0.128-0.678,0.385-0.934C-511.574-1832.513-511.262-1832.643-510.898-1832.643z"/>
			</g>
		</g>
	</g>
	<g transform="matrix( 0.90142822265625, 0, 0, 0.90142822265625, -633.75,201.45) ">
		<g>
			<g id="Symbol_3_0_Layer0_0_MEMBER_0_MEMBER_3_MEMBER_14_FILL">
				<path fill="#A9D4C8" d="M61.792-829.271c-0.34,0-0.63,0.12-0.87,0.36c-0.239,0.244-0.36,0.535-0.36,0.875v9.976
					c0,0.34,0.12,0.63,0.36,0.87c0.241,0.239,0.53,0.36,0.87,0.36h13.47c0.34,0,0.63-0.12,0.87-0.36s0.36-0.53,0.36-0.87v-9.976
					c0-0.34-0.12-0.632-0.36-0.875c-0.24-0.239-0.53-0.36-0.87-0.36H61.792 M61.032-828.036c0-0.212,0.073-0.394,0.22-0.545
					c0.15-0.146,0.33-0.22,0.54-0.22h13.47c0.21,0,0.39,0.074,0.54,0.22c0.15,0.151,0.225,0.333,0.225,0.545v0.761H61.032V-828.036
					 M61.032-826.805h14.995v8.745c0,0.21-0.075,0.39-0.225,0.539c-0.15,0.147-0.33,0.221-0.54,0.221h-13.47
					c-0.21,0-0.39-0.074-0.54-0.221c-0.147-0.149-0.22-0.329-0.22-0.539V-826.805z"/>
			</g>
		</g>
	</g>
	<g transform="matrix( 4.4095306396484375, 0, 0, 4.4095306396484375, 253.3,-287.2) ">
		<g>
			<g id="Symbol_3_0_Layer0_0_MEMBER_0_MEMBER_4_MEMBER_0_FILL">
				<path fill="#A9D4C8" d="M-171.736-65.666l-0.145-0.39c0.043-0.127,0.065-0.26,0.065-0.4c0-0.323-0.115-0.6-0.345-0.83
					c-0.227-0.23-0.501-0.345-0.825-0.345s-0.6,0.115-0.83,0.345c-0.23,0.23-0.345,0.507-0.345,0.83c0,0.327,0.115,0.603,0.345,0.83
					c0.23,0.23,0.507,0.345,0.83,0.345c0.237,0,0.455-0.067,0.655-0.2l0.29,0.115c0.03,0.013,0.067,0.02,0.11,0.02
					c0.077,0,0.135-0.03,0.175-0.09C-171.713-65.497-171.706-65.573-171.736-65.666 M-171.931-65.507l-0.05-0.01l-0.37-0.145
					c-0.186,0.15-0.398,0.225-0.635,0.225c-0.283-0.003-0.524-0.103-0.72-0.3c-0.197-0.197-0.295-0.437-0.295-0.72
					c0-0.28,0.098-0.518,0.295-0.715c0.197-0.197,0.437-0.295,0.72-0.295c0.28,0,0.52,0.098,0.72,0.295
					c0.197,0.197,0.295,0.435,0.295,0.715c0,0.137-0.027,0.268-0.08,0.395l0.165,0.45
					C-171.867-65.542-171.881-65.507-171.931-65.507z"/>
			</g>
		</g>
	</g>
	<g transform="matrix( 4.4095306396484375, 0, 0, 4.4095306396484375, 253.3,-287.2) ">
		<g>
			<g id="Symbol_3_0_Layer0_0_MEMBER_0_MEMBER_4_MEMBER_1_FILL">
				<path fill="#A9D4C8" d="M-172.401-66.457c0-0.033-0.014-0.063-0.04-0.09c-0.023-0.027-0.053-0.04-0.09-0.04
					s-0.068,0.013-0.095,0.04c-0.023,0.023-0.035,0.053-0.035,0.09s0.012,0.068,0.035,0.095c0.027,0.027,0.058,0.04,0.095,0.04
					s0.067-0.013,0.09-0.04C-172.415-66.388-172.401-66.42-172.401-66.457z"/>
			</g>
		</g>
	</g>
	<g transform="matrix( 4.4095306396484375, 0, 0, 4.4095306396484375, 253.3,-287.2) ">
		<g>
			<g id="Symbol_3_0_Layer0_0_MEMBER_0_MEMBER_4_MEMBER_2_FILL">
				<path fill="#A9D4C8" d="M-172.881-66.457c0-0.037-0.013-0.067-0.04-0.09c-0.027-0.027-0.058-0.04-0.095-0.04
					c-0.033,0-0.063,0.013-0.09,0.04c-0.027,0.027-0.04,0.057-0.04,0.09c0,0.037,0.013,0.068,0.04,0.095
					c0.023,0.027,0.053,0.04,0.09,0.04s0.068-0.013,0.095-0.04C-172.895-66.388-172.881-66.42-172.881-66.457z"/>
			</g>
		</g>
	</g>
	<g transform="matrix( 4.4095306396484375, 0, 0, 4.4095306396484375, 253.3,-287.2) ">
		<g>
			<g id="Symbol_3_0_Layer0_0_MEMBER_0_MEMBER_4_MEMBER_3_FILL">
				<path fill="#A9D4C8" d="M-173.361-66.457c0-0.037-0.013-0.067-0.04-0.09c-0.027-0.027-0.058-0.04-0.095-0.04
					c-0.033,0-0.063,0.013-0.09,0.04c-0.027,0.027-0.04,0.057-0.04,0.09c0,0.037,0.013,0.068,0.04,0.095
					c0.023,0.027,0.053,0.04,0.09,0.04c0.037,0,0.068-0.013,0.095-0.04C-173.375-66.388-173.361-66.42-173.361-66.457z"/>
			</g>
		</g>
	</g>
	<g transform="matrix( 0.272674560546875, 0, 0, 0.272674560546875, -336.75,-321.4) ">
		<g>
			<g id="Symbol_3_0_Layer0_0_MEMBER_0_MEMBER_5_MEMBER_0_FILL">
				<path fill="#A9D4C8" d="M-843.093-969.495l-6.515-11.319l-6.509,11.319l-12.775,2.695l8.749,9.691l-1.386,12.984l11.921-5.326
					l11.921,5.326l-1.381-12.984l8.749-9.691L-843.093-969.495 M-849.608-976l4.969,8.631l9.745,2.059l-6.674,7.39l1.055,9.904
					l-9.095-4.065l-9.09,4.061l1.055-9.901l-6.676-7.39l9.745-2.059L-849.608-976z"/>
			</g>
		</g>
	</g>
	<g transform="matrix( 5.4090728759765625, 0, 0, 5.4090728759765625, -261.05,258.8) ">
		<g>
			<g id="Symbol_3_0_Layer0_0_MEMBER_0_MEMBER_6_MEMBER_0_FILL">
				<path fill="#A9D4C8" d="M-54.352-144.366c0.167,0,0.307-0.058,0.42-0.175c0.117-0.113,0.175-0.253,0.175-0.42
					c0-0.163-0.058-0.303-0.175-0.42c-0.113-0.117-0.253-0.175-0.42-0.175h-0.06c-0.07-0.13-0.168-0.233-0.295-0.31
					c-0.127-0.077-0.265-0.115-0.415-0.115c-0.18,0-0.342,0.055-0.485,0.165c-0.143,0.107-0.24,0.247-0.29,0.42
					c-0.14,0.003-0.258,0.055-0.355,0.155c-0.097,0.1-0.145,0.22-0.145,0.36c0,0.143,0.05,0.265,0.15,0.365
					c0.1,0.1,0.222,0.15,0.365,0.15H-54.352 M-54.352-145.476c0.143,0,0.265,0.05,0.365,0.15c0.1,0.1,0.15,0.222,0.15,0.365
					s-0.05,0.265-0.15,0.365c-0.1,0.1-0.222,0.15-0.365,0.15h-1.53c-0.12,0-0.222-0.042-0.305-0.125
					c-0.087-0.087-0.13-0.19-0.13-0.31c0-0.12,0.043-0.222,0.13-0.305c0.083-0.087,0.185-0.13,0.305-0.13h0.015
					c0.023,0,0.037-0.01,0.04-0.03c0.04-0.163,0.125-0.295,0.255-0.395c0.133-0.103,0.283-0.155,0.45-0.155
					c0.14,0,0.268,0.037,0.385,0.11c0.113,0.07,0.202,0.168,0.265,0.295c0.013,0.017,0.027,0.023,0.04,0.02
					C-54.409-145.475-54.382-145.476-54.352-145.476z"/>
			</g>
		</g>
	</g>
	<g transform="matrix( 5.4090728759765625, 0, 0, 5.4090728759765625, -261.05,258.8) ">
		<g>
			<g id="Symbol_3_0_Layer0_0_MEMBER_0_MEMBER_6_MEMBER_1_FILL">
				<path fill="#A9D4C8" d="M-54.352-144.366c0.167,0,0.307-0.058,0.42-0.175c0.117-0.113,0.175-0.253,0.175-0.42
					c0-0.163-0.058-0.303-0.175-0.42c-0.113-0.117-0.253-0.175-0.42-0.175c-0.18,0-0.328,0.068-0.445,0.205
					c-0.017,0.02-0.017,0.038,0,0.055c0.02,0.017,0.04,0.015,0.06-0.005c0.1-0.117,0.228-0.175,0.385-0.175
					c0.143,0,0.265,0.05,0.365,0.15c0.1,0.1,0.15,0.222,0.15,0.365s-0.05,0.265-0.15,0.365c-0.1,0.1-0.222,0.15-0.365,0.15
					c-0.027,0-0.04,0.013-0.04,0.04C-54.392-144.38-54.379-144.366-54.352-144.366z"/>
			</g>
		</g>
	</g>
	<g transform="matrix( 1, 0, 0, 1, 0,0) ">
		<g>
			<g id="Symbol_3_0_Layer0_1_FILL">
				<path fill="#EBD0A2" d="M-568-563.393c0.003,0.236,0.021,0.496,0.055,0.78c0.3,2.483,1.479,4.827,3.535,7.03
					c-0.106-0.934-0.187-1.881-0.24-2.845c-0.015-0.031-0.032-0.062-0.05-0.091l-0.01-0.014c-0.352-0.636-0.666-1.282-0.94-1.94
					v-0.005c-0.41-0.99-0.733-2.009-0.97-3.056c-0.113-0.496-0.207-0.998-0.28-1.505c-0.303-0.03-0.55,0.002-0.74,0.095
					C-567.897-564.653-568.017-564.137-568-563.393 M-533.446-526.048h-2.255l-0.03,0.04c-2.846,1.126-5.691,1.126-8.535,0
					l-0.035-0.04h-2.26l4.195,5.335l-0.015,0.05c-0.363-0.073-0.719-0.164-1.065-0.275h0.005c-0.75-0.242-1.466-0.571-2.149-0.984
					h-0.005c-1.61-0.967-2.836-2.212-3.68-3.734c-0.073-0.132-0.142-0.262-0.205-0.391h-1.15c0.137,0.33,0.293,0.656,0.47,0.98
					c0.882,1.602,2.162,2.911,3.84,3.93c0.023,0.014,0.047,0.027,0.07,0.04c0.72,0.438,1.477,0.787,2.27,1.045
					c0.021,0.007,0.042,0.013,0.06,0.021c0.617,0.191,1.259,0.331,1.925,0.42c0.02,0.002,0.038,0.004,0.055,0.004
					c0.029,0.004,0.058,0.008,0.085,0.011h0.005c0.008,0.003,0.017,0.004,0.025,0.005c0.417,0.047,0.954,0.072,1.61,0.074h0.005
					c0.021,0.001,0.04-0.001,0.06-0.004c0.101-0.02,0.2-0.02,0.3,0c0.02,0.003,0.04,0.005,0.06,0.004h0.005
					c0.656-0.002,1.193-0.027,1.609-0.074c0.01-0.001,0.018-0.003,0.025-0.005c0.004,0.001,0.008,0.001,0.01,0
					c0.026-0.003,0.051-0.007,0.076-0.011c0.02,0,0.04-0.002,0.06-0.004c0.665-0.089,1.306-0.229,1.92-0.42
					c0.021-0.008,0.04-0.014,0.06-0.021c0.797-0.258,1.555-0.606,2.275-1.045c0.023-0.013,0.047-0.026,0.07-0.04
					c1.678-1.019,2.956-2.328,3.834-3.93c0.18-0.324,0.338-0.65,0.476-0.98h-1.149c-0.064,0.129-0.133,0.259-0.205,0.391
					c-0.844,1.522-2.07,2.768-3.681,3.734h-0.005c-0.684,0.413-1.4,0.742-2.15,0.984h0.006c-0.348,0.111-0.702,0.202-1.065,0.275
					l-0.015-0.05L-533.446-526.048 M-536.58-519.289l0.005-0.005v-0.005L-536.58-519.289 M-539.205-562.978
					c-0.356-1.044-0.51-2.057-0.46-3.04c-0.104-0.197-0.215-0.342-0.335-0.436c-0.12,0.094-0.231,0.238-0.335,0.436
					c0.05,0.983-0.104,1.996-0.46,3.04c-0.287,0.833-0.724,1.736-1.31,2.71v0.005c-0.35,0.58-0.758,1.183-1.225,1.811l0.01-0.011
					c-0.163,0.224-0.333,0.448-0.51,0.675h-0.005c-2.068,1.781-3.751,2.856-5.05,3.225c-1.296,0.373-1.966,0.576-2.01,0.611h-0.005
					c-3.053,0.061-5.078,0.073-6.075,0.039c-0.994-0.033-1.613-0.221-1.86-0.56c0.19,7.819,2.106,14.198,5.75,19.14
					c0.236,0.318,0.478,0.629,0.725,0.936c0.052,0.085,0.102,0.172,0.15,0.26c0.018,0.029,0.034,0.057,0.05,0.085
					c0.417,0.745,1.157,1.642,2.22,2.69c1.281,1.268,4.589,2.118,9.925,2.549c4.177-0.627,6.782-1.104,7.815-1.43
					c1.036-0.322,1.601-0.592,1.69-0.81c0.025-0.062,0.043-0.109,0.055-0.146c0.008-0.014,1.135-2.15,3.38-6.41
					c2.245-4.256,3.572-9.819,3.979-16.689c-0.633,0.461-1.546,0.552-2.739,0.275c-1.194-0.278-2.487-0.475-3.88-0.59
					c-2.693-0.027-4.844-1.086-6.45-3.176h-0.005c-0.177-0.227-0.347-0.451-0.51-0.675l0.01,0.011
					c-0.467-0.627-0.875-1.23-1.225-1.811v-0.005C-538.483-561.242-538.918-562.145-539.205-562.978z"/>
				<path fill="#FFFFFF" d="M-561.446-569.624l-0.025,0.01c-1.027,0.253-2.032,0.58-3.015,0.98c-0.036,0.11-0.085,0.22-0.145,0.33
					c-0.057,0.503-0.065,1.008-0.025,1.515v0.015c0.067,1.063,0.227,2.093,0.48,3.09c0.183,0.736,0.42,1.457,0.71,2.16l0.005,0.005
					c0.23,0.557,0.493,1.102,0.79,1.635l0.01,0.02c0.124,0.233,0.257,0.461,0.4,0.685l0.005,0.015
					c0.203,0.33,0.421,0.655,0.655,0.975l0.01,0.016c0.167,0.236,0.361,0.439,0.585,0.609c0.003,0,0.006,0.002,0.01,0.006
					c0.007,0.003,0.012,0.006,0.015,0.01c0.333,0.21,0.756,0.404,1.27,0.585c0.57,0.196,1.257,0.374,2.06,0.53
					c1.674,0.313,3.824,0.275,6.45-0.115v0.005c0.44-0.066,0.86-0.153,1.26-0.26c1.771-0.474,3.169-1.345,4.195-2.615v-0.005
					c0.163-0.213,0.322-0.423,0.475-0.63l0.01-0.01c0.426-0.577,0.801-1.131,1.125-1.665l0.005-0.005
					c0.49-0.813,0.856-1.568,1.1-2.265c0.507-1.477,0.387-2.865-0.36-4.165l0.02,0.005l-0.025-0.01
					c-1.397-0.687-2.862-1.16-4.395-1.42c-0.02-0.007-0.038-0.01-0.055-0.01c-0.037-0.01-0.072-0.017-0.105-0.021
					c-0.007-0.003-0.015-0.005-0.025-0.005c-0.02-0.003-0.043-0.007-0.07-0.01c-2.887-0.497-5.797-0.703-8.73-0.62
					c-1.43,0.04-2.833,0.215-4.21,0.525c-0.1,0.023-0.198,0.046-0.295,0.069c-0.017,0.004-0.031,0.007-0.045,0.01
					C-561.365-569.642-561.406-569.633-561.446-569.624 M-536.606-568.169l-0.024,0.01l0.021-0.005
					c-0.748,1.3-0.867,2.688-0.361,4.165c0.244,0.697,0.611,1.452,1.101,2.265l0.005,0.005c0.323,0.533,0.698,1.088,1.125,1.665
					l0.01,0.01c0.154,0.207,0.313,0.417,0.476,0.63v0.005c1.26,1.56,3.078,2.519,5.454,2.875v-0.005
					c1.657,0.243,3.125,0.35,4.406,0.32c0.569-0.018,1.102-0.063,1.594-0.135c0.157-0.021,0.307-0.044,0.451-0.07
					c1.516-0.297,2.626-0.668,3.33-1.115c0.003-0.004,0.008-0.007,0.015-0.01c0.003-0.004,0.007-0.006,0.01-0.006
					c0.224-0.17,0.419-0.373,0.585-0.609l0.01-0.016c0.233-0.319,0.452-0.645,0.655-0.975l0.005-0.015
					c0.144-0.224,0.277-0.452,0.4-0.685l0.01-0.02c0.297-0.533,0.561-1.078,0.79-1.635l0.005-0.005c0.677-1.65,1.073-3.4,1.189-5.25
					v-0.015c0.041-0.506,0.032-1.012-0.024-1.515c-0.06-0.11-0.108-0.22-0.146-0.33c-0.982-0.4-1.988-0.727-3.015-0.98l-0.024-0.01
					c-0.041-0.01-0.08-0.018-0.121-0.025c-0.013-0.003-0.027-0.006-0.045-0.01c-1.469-0.353-2.969-0.551-4.5-0.595h-0.004
					c-2.934-0.083-5.844,0.123-8.73,0.62c-0.027,0.003-0.05,0.007-0.07,0.01c-0.043,0.003-0.086,0.012-0.13,0.025
					c-0.017,0-0.034,0.003-0.055,0.01C-533.744-569.329-535.209-568.855-536.606-568.169z"/>
				<path fill="#293A42" d="M-558.955-573.978c0.007-0.004,0.014-0.007,0.02-0.01c5.003-1.547,8.813-1.625,11.43-0.235
					c0.24,0.126,0.47,0.267,0.689,0.42c0.224,0.163,0.472,0.223,0.745,0.18c0.271-0.046,0.487-0.182,0.65-0.405
					c0.163-0.223,0.223-0.47,0.18-0.74c-0.046-0.273-0.18-0.492-0.4-0.655c-0.473-0.354-0.985-0.657-1.535-0.91
					c-2.96-1.34-7.077-1.195-12.351,0.435c-0.097,0.027-0.193,0.057-0.29,0.09c-0.263,0.083-0.458,0.248-0.585,0.495
					c-0.126,0.247-0.146,0.501-0.06,0.765c0.083,0.26,0.248,0.453,0.495,0.58c0.247,0.126,0.5,0.148,0.76,0.065
					C-559.122-573.93-559.038-573.955-558.955-573.978 M-533.93-573.624c0.273,0.043,0.521-0.017,0.744-0.18
					c2.254-1.56,5.557-1.823,9.91-0.79c0.711,0.167,1.447,0.368,2.211,0.605c0.006,0.003,0.013,0.006,0.02,0.01
					c0.083,0.023,0.166,0.048,0.25,0.075c0.26,0.083,0.514,0.062,0.76-0.065c0.246-0.127,0.412-0.32,0.495-0.58
					c0.087-0.264,0.066-0.519-0.06-0.765c-0.127-0.247-0.322-0.412-0.586-0.495c-0.096-0.034-0.193-0.063-0.289-0.09
					c-0.967-0.3-1.896-0.548-2.785-0.745c-4.867-1.094-8.566-0.687-11.1,1.22c-0.221,0.163-0.354,0.382-0.4,0.655
					c-0.043,0.27,0.016,0.517,0.18,0.74C-534.417-573.805-534.2-573.67-533.93-573.624z"/>
				<path fill="#DEB684" d="M-539.91-527.478c-0.033,0-0.063,0-0.09,0c-0.027,0-0.057,0-0.09,0c-2.271-0.117-4.247-0.37-5.93-0.76
					l1.72,2.189l0.035,0.04c2.843,1.126,5.689,1.126,8.535,0l0.03-0.04l1.72-2.189C-535.664-527.848-537.641-527.595-539.91-527.478
					 M-512.36-564.919c-0.191-0.093-0.436-0.125-0.736-0.095c-0.236,1.583-0.654,3.103-1.254,4.56v0.005
					c-0.277,0.663-0.594,1.315-0.951,1.955c-0.017,0.029-0.031,0.059-0.045,0.09c-0.057,0.964-0.138,1.912-0.244,2.846
					c2.057-2.203,3.234-4.547,3.535-7.03C-511.922-563.758-512.024-564.535-512.36-564.919 M-516.936-556.144
					c-0.449,0.438-0.696,0.672-0.74,0.705c-0.01,0.004-0.191,0.074-0.545,0.211c-0.354,0.141-1.149,0.379-2.389,0.715
					c-1.237,0.336-2.065,0.407-2.486,0.215c-0.407,6.87-1.734,12.434-3.979,16.689c-2.245,4.26-3.372,6.396-3.38,6.41
					c2.141-1.803,3.456-3.002,3.945-3.6c0.492-0.598,2.02-2.295,4.58-5.09l-0.035,0.025c1.239-1.336,2.225-2.867,2.955-4.596
					C-517.709-547.534-517.018-551.429-516.936-556.144z"/>
				<path fill="#EAA548" d="M-528.115-531.068c-0.184,0.051-0.332,0.156-0.445,0.314c-0.109,0.157-0.158,0.33-0.145,0.52
					c0.109,1.35-0.074,2.649-0.55,3.9v-0.005c-0.036,0.098-0.073,0.194-0.115,0.29c-0.138,0.33-0.296,0.656-0.476,0.98
					c-0.878,1.602-2.156,2.911-3.834,3.93c-0.023,0.014-0.047,0.027-0.07,0.04c-0.721,0.438-1.479,0.787-2.275,1.045
					c-0.02,0.007-0.039,0.013-0.06,0.021c-0.614,0.191-1.255,0.331-1.92,0.42c-0.02,0.002-0.04,0.004-0.06,0.004
					c-0.025,0.004-0.05,0.008-0.076,0.011c-0.002,0.001-0.006,0.001-0.01,0c-0.008,0.002-0.016,0.004-0.025,0.005
					c-0.416,0.047-0.953,0.072-1.609,0.074h-0.005c-0.021,0.001-0.041-0.001-0.06-0.004c-0.1-0.02-0.2-0.02-0.3,0
					c-0.02,0.003-0.039,0.005-0.06,0.004h-0.005c-0.656-0.002-1.193-0.027-1.61-0.074c-0.008-0.001-0.017-0.002-0.025-0.005h-0.005
					c-0.028-0.003-0.056-0.007-0.085-0.011c-0.017,0-0.035-0.002-0.055-0.004c-0.666-0.089-1.308-0.229-1.925-0.42
					c-0.019-0.008-0.039-0.014-0.06-0.021c-0.793-0.258-1.55-0.606-2.27-1.045c-0.023-0.013-0.047-0.026-0.07-0.04
					c-1.678-1.019-2.958-2.328-3.84-3.93c-0.176-0.324-0.333-0.65-0.47-0.98c-0.04-0.094-0.078-0.189-0.115-0.285l0,0
					c-0.476-1.252-0.661-2.552-0.555-3.9c0.017-0.189-0.032-0.362-0.146-0.52c-0.109-0.158-0.258-0.264-0.445-0.314
					c-0.184-0.049-0.366-0.032-0.545,0.049c-0.86,0.4-1.702,0.87-2.525,1.41l0,0c-2.291,1.499-4.452,3.553-6.485,6.16l-0.005,0.006
					c-1.679,2.162-2.957,4.828-3.835,8c0.245,0.154,0.49,0.306,0.735,0.455c7.27,4.42,15.453,6.629,24.55,6.629
					c9.099,0,17.281-2.209,24.55-6.629c0.247-0.15,0.492-0.302,0.735-0.455c-0.324-1.173-0.704-2.276-1.141-3.311
					c-0.738-1.764-1.639-3.327-2.699-4.689v-0.006c-0.014-0.016-0.027-0.031-0.041-0.05c-1.373-1.756-2.805-3.259-4.295-4.51
					c-1.5-1.261-3.06-2.263-4.68-3.011C-527.746-531.1-527.928-531.117-528.115-531.068 M-536.575-519.294l-0.005,0.005l0.005-0.01
					V-519.294z"/>
				<path fill="#FCE7D1" d="M-562.3-555.419c-0.007-0.01-0.015-0.017-0.025-0.021c-0.043-0.033-0.307-0.218-0.79-0.555
					c-0.104,4.363,0.482,8.002,1.76,10.916c1.279,2.912,2.734,5.176,4.365,6.789c1.63,1.617,2.624,2.489,2.98,2.615
					c0.36,0.126,0.641,0.225,0.84,0.295c0.028,0.01,0.056,0.025,0.085,0.045c-3.644-4.941-5.56-11.32-5.75-19.14
					C-560.399-554.56-561.554-554.875-562.3-555.419z"/>
			</g>
		</g>
	</g>
	<g transform="matrix( 1, 0, 0, 1, 0,0) ">
		<g>
			<g id="Symbol_3_0_Layer0_1_MEMBER_0_FILL">
				<path fill="#EBD0A2" d="M-564.615-575.579l-2.01,0.94c0.117,1.79,0.39,3.515,0.82,5.175c0.394-0.177,0.79-0.342,1.19-0.495
					V-575.579 M-528.555-588.994l1.524,2.335c-1.983-0.68-3.626-1.296-4.93-1.85c-1.523-0.644-2.804-1.287-3.841-1.93
					c0.204,1.007,0.629,2.012,1.275,3.015c-4.106-1.677-7.398-3.537-9.875-5.58c-1.51-1.243-2.727-2.563-3.649-3.96
					c-1.137-0.733-2.155-1.455-3.055-2.165c-6.98,5.94-10.168,15.282-9.565,28.025c1.303-0.26,2.632-0.41,3.985-0.45
					c2.954-0.087,5.887,0.122,8.8,0.625c0.003,0,0.006,0,0.01,0c0.007,0,0.013,0.001,0.02,0.005c0.08,0.01,0.162,0.023,0.245,0.04
					c1.62,0.276,3.172,0.763,4.655,1.46c1.39,0.367,2.375,0.645,2.955,0.835c0.58-0.19,1.564-0.468,2.955-0.835
					c1.483-0.697,3.035-1.184,4.654-1.46c0.084-0.017,0.166-0.03,0.246-0.04c0.006-0.003,0.013-0.005,0.02-0.005
					c0.004,0,0.006,0,0.01,0c2.906-0.503,5.834-0.712,8.78-0.625c0.153-5.21,0.078-10.685-0.226-16.425
					c-0.467-0.057-0.968-0.135-1.504-0.235C-526.005-588.39-527.168-588.65-528.555-588.994z"/>
				<path fill="#FCE7D1" d="M-551.105-599.129c-0.173-0.133-0.342-0.267-0.505-0.4c-0.38,0.11-0.76,0.23-1.14,0.36
					c-7.41,4.813-11.082,11.887-11.015,21.22c0.003,0.663-0.005,1.325-0.025,1.985l-0.825,0.385v5.62
					c0.943-0.366,1.9-0.668,2.87-0.905l-0.025,0.005c0.086-0.023,0.173-0.043,0.26-0.06c0.276-0.066,0.557-0.128,0.84-0.185
					C-561.274-583.847-558.085-593.189-551.105-599.129z"/>
				<path fill="#DEB684" d="M-518.66-589.698c-1.674-0.267-3.367-0.713-5.08-1.34c-2.713-0.986-5.477-2.421-8.29-4.305
					c0.014,0.14,0.03,0.283,0.05,0.43c0.221,1.534,0.953,3.07,2.2,4.61c-4.307-1.733-7.84-3.73-10.6-5.99
					c0.2,1.613,0.79,3.097,1.771,4.45c-3.737-1.764-6.884-3.47-9.44-5.12c0.923,1.396,2.14,2.717,3.649,3.96
					c2.477,2.043,5.769,3.903,9.875,5.58c-0.646-1.003-1.071-2.008-1.275-3.015c1.037,0.644,2.317,1.287,3.841,1.93
					c1.304,0.553,2.946,1.17,4.93,1.85l-1.524-2.335c1.387,0.344,2.55,0.604,3.49,0.78c0.536,0.1,1.037,0.178,1.504,0.235
					c0.304,5.74,0.379,11.215,0.226,16.425c0.007,0,0.013,0,0.021,0c1.643,0.046,3.251,0.258,4.824,0.635
					c0.087,0.017,0.174,0.037,0.26,0.06l-0.024-0.005c1.384,0.336,2.738,0.803,4.065,1.4c0.426-1.66,0.697-3.385,0.814-5.175
					l-2.835-1.325c-0.021-0.66-0.028-1.322-0.024-1.985C-516.205-582.375-517.014-586.292-518.66-589.698z"/>
			</g>
		</g>
	</g>
	<g transform="matrix( 1, 0, 0, 1, 0,0) ">
		<g>
			<g id="Symbol_3_0_Layer0_1_MEMBER_0_MEMBER_0_FILL">
				<path fill="#293A42" d="M-562.885-573.683c-0.117-0.254-0.305-0.427-0.565-0.521c-0.257-0.093-0.51-0.082-0.76,0.035l-3.13,1.46
					c-0.254,0.117-0.427,0.305-0.521,0.565c-0.093,0.26-0.081,0.515,0.035,0.765c0.117,0.25,0.305,0.422,0.565,0.515
					c0.256,0.093,0.511,0.083,0.765-0.03l3.13-1.46c0.25-0.12,0.422-0.311,0.515-0.57S-562.769-573.437-562.885-573.683
					 M-512.141-572.143c-0.093-0.26-0.266-0.449-0.52-0.565l-3.13-1.46c-0.25-0.117-0.503-0.128-0.761-0.035
					c-0.26,0.094-0.447,0.267-0.564,0.521c-0.117,0.246-0.129,0.5-0.035,0.76s0.266,0.45,0.516,0.57l3.13,1.46
					c0.253,0.113,0.509,0.123,0.765,0.03c0.26-0.093,0.448-0.265,0.564-0.515C-512.059-571.629-512.047-571.883-512.141-572.143z"/>
				<path fill="#C6794E" d="M-527.835-606.818c-1.41-0.49-2.835-0.9-4.274-1.23c-13.797,0.903-21.808,3.267-24.031,7.09
					c-3.513,1.64-6.965,7.514-10.355,17.62c-0.31,2.83-0.452,5.775-0.425,8.835l3.13-1.46c0.02-0.66,0.028-1.322,0.025-1.985
					c-0.067-9.333,3.605-16.407,11.015-21.22c0.38-0.13,0.76-0.25,1.14-0.36c2.96,2.427,7.293,4.988,13.001,7.685
					c-0.98-1.354-1.571-2.837-1.771-4.45c2.76,2.26,6.293,4.257,10.6,5.99c-1.247-1.54-1.979-3.077-2.2-4.61
					c-0.02-0.146-0.036-0.29-0.05-0.43c4.591,3.073,9.047,4.955,13.37,5.645c0.076,0.013,0.153,0.025,0.23,0.035
					c-0.077-0.01-0.154-0.021-0.23-0.035c1.646,3.407,2.455,7.323,2.426,11.75c-0.004,0.663,0.004,1.325,0.024,1.985l3.13,1.46
					c0.061-6.953-0.75-13.316-2.43-19.09c-1.354-4.646-3.605-8.05-6.756-10.21C-524.426-605.277-526.281-606.282-527.835-606.818z"
					/>
				<path fill="#D58D5E" d="M-532.11-608.048c-2.584-0.597-5.214-0.94-7.891-1.03c-4.17,0.144-8.225,0.897-12.165,2.26
					c-1.554,0.537-3.243,2.093-5.07,4.67c-3.483,1.057-5.901,3.909-7.255,8.555c-0.94,3.233-1.608,6.651-2.005,10.255
					c3.39-10.106,6.842-15.98,10.355-17.62C-553.917-604.782-545.907-607.145-532.11-608.048z"/>
			</g>
		</g>
		<g>
			
				<path id="Symbol_3_0_Layer0_1_MEMBER_0_MEMBER_0_1_STROKES" fill="none" stroke="#293A42" stroke-width="2" stroke-linecap="round" stroke-linejoin="round" d="
				M-540.54-609.093c0.18,0.003,0.36,0.008,0.54,0.015c0.18-0.006,0.36-0.012,0.54-0.015 M-532.11-608.048
				c-2.584-0.597-5.214-0.94-7.891-1.03c-4.17,0.144-8.225,0.897-12.165,2.26c-1.554,0.537-3.243,2.093-5.07,4.67
				c-3.483,1.057-5.901,3.909-7.255,8.555c-0.94,3.233-1.608,6.651-2.005,10.255 M-532.11-608.048c1.439,0.33,2.864,0.74,4.274,1.23
				c1.554,0.537,3.409,1.542,5.569,3.015c3.15,2.16,5.402,5.563,6.756,10.21c1.68,5.773,2.49,12.137,2.43,19.09l-3.13-1.46
				c-0.021-0.66-0.028-1.322-0.024-1.985c0.029-4.427-0.779-8.343-2.426-11.75c-4.323-0.69-8.779-2.572-13.37-5.645
				c0.014,0.14,0.03,0.283,0.05,0.43c0.221,1.534,0.953,3.07,2.2,4.61c-4.307-1.733-7.84-3.73-10.6-5.99
				c0.2,1.613,0.79,3.097,1.771,4.45c-5.708-2.697-10.041-5.258-13.001-7.685c-0.38,0.11-0.76,0.23-1.14,0.36
				c-7.41,4.813-11.082,11.887-11.015,21.22c0.003,0.663-0.005,1.325-0.025,1.985l-3.13,1.46c-0.027-3.06,0.115-6.005,0.425-8.835
				 M-518.66-589.698c0.076,0.013,0.153,0.025,0.23,0.035"/>
		</g>
	</g>
	<g transform="matrix( 1, 0, 0, 1, 0,0) ">
		<g>
			<g id="Symbol_3_0_Layer0_1_MEMBER_1_FILL">
				<path fill="#DEB684" d="M-537.01-537.734c0.836-0.326,1.255-0.721,1.255-1.185s-0.419-0.862-1.255-1.194
					c-0.83-0.33-1.836-0.192-3.016,0.414c-1.18-0.606-2.187-0.744-3.02-0.414c-0.83,0.332-1.245,0.73-1.245,1.194
					s0.415,0.858,1.245,1.185c0.833,0.327,1.84,0.49,3.02,0.49S-537.84-537.407-537.01-537.734z"/>
			</g>
		</g>
	</g>
	<g transform="matrix( 1, 0, 0, 1, 0,0) ">
		<g>
			<g id="Symbol_3_0_Layer0_1_MEMBER_2_FILL">
				<path fill="#FFFFFF" d="M-549.48-526.048c0.063,0.129,0.131,0.259,0.205,0.391c0.844,1.522,2.07,2.768,3.68,3.734h0.005
					c0.683,0.413,1.399,0.742,2.149,0.984h-0.005c0.347,0.111,0.702,0.202,1.065,0.275l0.015-0.05l-4.615-5.875h-2.74
					c0.069,0.169,0.144,0.337,0.225,0.505C-549.49-526.072-549.485-526.06-549.48-526.048 M-537.635-520.714l0.015,0.05
					c0.363-0.073,0.718-0.164,1.065-0.275h-0.006c0.75-0.242,1.467-0.571,2.15-0.984h0.005c1.61-0.967,2.837-2.212,3.681-3.734
					c0.072-0.132,0.141-0.262,0.205-0.391c0.007-0.012,0.014-0.023,0.02-0.035c0.08-0.168,0.155-0.336,0.225-0.505h-2.744
					L-537.635-520.714z"/>
				<path fill="#CBCBCB" d="M-549.245-529.593c-0.396-0.203-0.76-0.424-1.09-0.66c-0.076,1.263,0.129,2.484,0.615,3.665h2.74
					l-2.075-2.64C-549.145-529.345-549.209-529.466-549.245-529.593 M-529.665-530.254c-0.33,0.236-0.693,0.457-1.09,0.66
					c-0.037,0.127-0.101,0.248-0.19,0.365l-2.074,2.64h2.744C-529.793-527.769-529.59-528.991-529.665-530.254z"/>
			</g>
		</g>
	</g>
	<g transform="matrix( 1, 0, 0, 1, 0,0) ">
		<g>
			<g id="Symbol_3_0_Layer0_1_MEMBER_3_FILL">
				<path fill="#DB8556" d="M-518.555-523.449c-0.014-0.016-0.027-0.031-0.041-0.05c-1.373-1.756-2.805-3.259-4.295-4.51
					c2.646,3.879,4.137,8.771,4.471,14.675c1.008-0.511,1.998-1.063,2.97-1.654c0.247-0.15,0.492-0.302,0.735-0.455
					c-0.324-1.173-0.704-2.276-1.141-3.311c-0.738-1.764-1.639-3.327-2.699-4.689V-523.449z"/>
			</g>
		</g>
	</g>
	<g transform="matrix( 1, 0, 0, 1, 0,0) ">
		<g>
			<g id="Symbol_3_0_Layer0_2_MEMBER_0_FILL">
				<path fill="#4E2B13" d="M-562.85-572.923c0.093-0.26,0.082-0.514-0.035-0.76c-0.117-0.254-0.305-0.427-0.565-0.521
					c-0.257-0.093-0.51-0.082-0.76,0.035l-3.13,1.46c-0.254,0.117-0.427,0.305-0.521,0.565c-0.093,0.26-0.081,0.515,0.035,0.765
					c0.117,0.25,0.305,0.422,0.565,0.515c0.256,0.093,0.511,0.083,0.765-0.03l3.13-1.46
					C-563.115-572.473-562.944-572.664-562.85-572.923 M-512.141-572.143c-0.093-0.26-0.266-0.449-0.52-0.565l-3.13-1.46
					c-0.25-0.117-0.503-0.128-0.761-0.035c-0.26,0.094-0.447,0.267-0.564,0.521c-0.117,0.246-0.129,0.5-0.035,0.76
					s0.266,0.45,0.516,0.57l3.13,1.46c0.253,0.113,0.509,0.123,0.765,0.03c0.26-0.093,0.448-0.265,0.564-0.515
					C-512.059-571.629-512.047-571.883-512.141-572.143 M-539.48-610.093c-0.156,0.003-0.312,0.008-0.47,0.015
					c-0.004,0-0.009,0-0.015,0l0,0c-0.186-0.006-0.373-0.012-0.561-0.015c-0.119-0.002-0.232,0.015-0.34,0.05
					c-3.979,0.214-7.855,0.975-11.63,2.28c-1.658,0.535-3.443,2.12-5.355,4.755c-3.641,1.194-6.174,4.239-7.6,9.135
					c-1.708,5.86-2.531,12.318-2.47,19.375c0.002,0.232,0.075,0.439,0.22,0.62c0.146,0.181,0.329,0.297,0.55,0.35
					c0.225,0.053,0.441,0.029,0.65-0.07l3.13-1.46c0.173-0.079,0.311-0.197,0.415-0.355c0.104-0.158,0.159-0.331,0.165-0.52
					c0.021-0.672,0.028-1.345,0.025-2.021v-0.005c-0.072-8.918,3.413-15.687,10.455-20.305c0.162-0.054,0.322-0.105,0.48-0.155
					c2.992,2.37,7.255,4.863,12.79,7.48c0.21,0.098,0.425,0.122,0.646,0.07c0.223-0.048,0.406-0.162,0.549-0.34
					c0.148-0.174,0.228-0.375,0.236-0.605c0.006-0.227-0.057-0.433-0.191-0.62c-0.301-0.416-0.563-0.846-0.784-1.29
					c2.385,1.595,5.194,3.043,8.43,4.345c0.214,0.087,0.429,0.099,0.646,0.035c0.219-0.061,0.396-0.185,0.529-0.37
					c0.139-0.182,0.205-0.387,0.2-0.615c-0.005-0.225-0.08-0.427-0.225-0.604c-0.593-0.734-1.058-1.468-1.396-2.2
					c3.773,2.244,7.459,3.688,11.055,4.33c1.436,3.172,2.139,6.787,2.111,10.845v0.005c-0.004,0.675,0.004,1.349,0.024,2.021
					c0.006,0.188,0.062,0.362,0.165,0.52c0.104,0.158,0.24,0.276,0.41,0.355l3.13,1.46c0.212,0.099,0.429,0.123,0.649,0.07
					c0.225-0.053,0.41-0.169,0.555-0.35c0.146-0.181,0.219-0.388,0.221-0.62c0.061-7.057-0.763-13.515-2.471-19.375
					c-1.428-4.901-3.811-8.486-7.149-10.755h-0.005c-2.248-1.535-4.184-2.58-5.805-3.135c-3.771-1.306-7.646-2.066-11.625-2.28
					C-539.242-610.079-539.357-610.096-539.48-610.093 M-539.005-609.044c0.002-0.021,0.004-0.045,0.005-0.07
					c0.004,0.103-0.008,0.2-0.035,0.29C-539.016-608.892-539.006-608.965-539.005-609.044 M-539.975-608.079
					c4.049,0.146,7.986,0.882,11.81,2.205c1.487,0.519,3.267,1.484,5.335,2.896l0,0c2.961,2.052,5.081,5.273,6.359,9.665
					c1.527,5.251,2.322,10.999,2.386,17.24l-1.14-0.535c-0.01-0.443-0.013-0.888-0.01-1.335l0,0
					c0.028-4.308-0.711-8.149-2.216-11.525c0.004-0.022,0.007-0.046,0.011-0.07c0.035-0.271-0.031-0.516-0.201-0.735
					c-0.168-0.219-0.388-0.347-0.66-0.385c-0.049-0.004-0.099-0.011-0.149-0.02c-0.036-0.007-0.072-0.014-0.11-0.02
					c-4.174-0.681-8.479-2.506-12.914-5.475c-0.217-0.147-0.456-0.2-0.715-0.16c-0.261,0.045-0.473,0.171-0.636,0.38
					c-0.159,0.209-0.226,0.444-0.2,0.705c0.016,0.153,0.033,0.31,0.055,0.47v0.005c0.104,0.758,0.32,1.515,0.65,2.27
					c-2.908-1.373-5.385-2.895-7.43-4.565c-0.156-0.127-0.336-0.201-0.54-0.22c-0.202-0.019-0.394,0.021-0.575,0.12
					c-0.177,0.099-0.312,0.239-0.405,0.42c-0.094,0.185-0.129,0.376-0.105,0.575c0.091,0.726,0.251,1.426,0.48,2.1
					c-4.294-2.168-7.654-4.245-10.08-6.23c-0.129-0.104-0.274-0.172-0.435-0.205c-0.16-0.033-0.32-0.026-0.48,0.02
					c-0.393,0.115-0.789,0.24-1.185,0.375c-0.075,0.027-0.148,0.062-0.22,0.105c-7.707,5.008-11.53,12.362-11.47,22.065l0,0
					c0.002,0.447-0.001,0.892-0.01,1.335l-1.145,0.535c0.067-6.242,0.864-11.989,2.39-17.24c1.239-4.253,3.434-6.88,6.585-7.88
					c0.219-0.066,0.394-0.193,0.525-0.38c1.666-2.348,3.192-3.781,4.58-4.3c3.835-1.326,7.78-2.061,11.835-2.205h-0.03
					c0.022,0.001,0.044,0.001,0.065,0c-0.01,0.001-0.022,0.001-0.035,0H-539.975z"/>
			</g>
		</g>
	</g>
	<g transform="matrix( 1, 0, 0, 1, 0,0) ">
		<g>
			<g id="Symbol_3_0_Layer0_2_MEMBER_1_FILL">
				<path fill="#4E2B13" d="M-563.45-572.439c0.2-0.093,0.338-0.243,0.415-0.45c0.073-0.21,0.063-0.414-0.03-0.61
					c-0.097-0.203-0.247-0.342-0.45-0.415c-0.21-0.076-0.415-0.068-0.615,0.025l-2.64,1.235c-0.2,0.093-0.336,0.245-0.41,0.455
					c-0.077,0.207-0.067,0.41,0.03,0.61c0.094,0.2,0.244,0.338,0.45,0.415c0.207,0.073,0.41,0.063,0.61-0.03L-563.45-572.439
					 M-559.526-575.798c-0.096,0.025-0.193,0.056-0.29,0.09c-0.263,0.083-0.458,0.249-0.585,0.495
					c-0.126,0.247-0.146,0.502-0.06,0.765c0.083,0.26,0.248,0.453,0.495,0.58c0.247,0.127,0.5,0.148,0.76,0.065
					c0.083-0.027,0.167-0.052,0.25-0.075c0.007-0.003,0.014-0.007,0.02-0.01c5.46-1.69,9.5-1.628,12.12,0.185
					c0.224,0.164,0.472,0.224,0.745,0.18c0.271-0.046,0.487-0.182,0.65-0.405c0.163-0.224,0.223-0.47,0.18-0.74
					c-0.046-0.273-0.18-0.492-0.4-0.655C-548.637-577.577-553.265-577.735-559.526-575.798 M-512.846-571.589
					c0.094-0.2,0.104-0.403,0.031-0.61c-0.077-0.21-0.216-0.362-0.416-0.455l-2.64-1.235c-0.2-0.094-0.403-0.102-0.61-0.025
					c-0.206,0.073-0.356,0.212-0.449,0.415c-0.098,0.197-0.107,0.4-0.03,0.61c0.073,0.207,0.21,0.356,0.409,0.45l2.641,1.235
					c0.2,0.094,0.405,0.104,0.615,0.03C-513.092-571.25-512.942-571.388-512.846-571.589 M-532.11-572.129h-0.016
					c-0.007,0-0.014,0.002-0.02,0.005c-0.08,0.01-0.16,0.023-0.24,0.04c-1.62,0.277-3.174,0.764-4.66,1.46
					c-1.391,0.367-2.375,0.646-2.955,0.835c-0.58-0.189-1.565-0.468-2.955-0.835c-1.487-0.696-3.04-1.183-4.66-1.46
					c-0.08-0.017-0.16-0.03-0.24-0.04c-0.007-0.003-0.013-0.005-0.02-0.005h-0.01c-2.914-0.503-5.847-0.712-8.8-0.625
					c-1.643,0.047-3.251,0.258-4.825,0.635c-0.087,0.017-0.174,0.037-0.26,0.061l0.025-0.005c-1.42,0.347-2.809,0.829-4.165,1.445
					c-0.207,0.097-0.383,0.233-0.53,0.41c-0.043,0.05-0.08,0.1-0.11,0.15l-1.186,0.08c-0.413,0.026-0.756,0.194-1.03,0.505
					c-0.273,0.31-0.396,0.671-0.37,1.085c0.026,0.413,0.195,0.756,0.505,1.03c0.313,0.273,0.677,0.398,1.09,0.375l0.485-0.035
					c0,0.1,0.001,0.2,0.005,0.3c-0.797-0.03-1.419,0.193-1.865,0.67c-0.837,0.64-1.142,1.938-0.915,3.895
					c0.33,3.028,1.852,5.858,4.565,8.49c0.001,0.002,0.003,0.004,0.005,0.006c0.265,0.258,0.542,0.514,0.83,0.77
					c0.63,5.88,2.159,10.162,4.585,12.845c3.034,3.427,4.817,5.419,5.35,5.976c0.35,0.366,0.988,1,1.915,1.899
					c-3.543,1.536-6.815,4.231-9.815,8.085h0.005c-1.705,2.164-3.017,4.817-3.935,7.96c0.586,0.394,1.178,0.772,1.775,1.136
					c0.849-3.121,2.094-5.742,3.735-7.865c2.676-3.44,5.583-5.887,8.72-7.34c-0.157,1.959,0.255,3.83,1.235,5.609
					c0.957,1.746,2.355,3.172,4.195,4.275v-0.006c0.773,0.471,1.587,0.844,2.44,1.121l0.005,0.004
					c0.707,0.225,1.445,0.384,2.215,0.48c0.036,0.007,0.073,0.012,0.11,0.016c0.44,0.047,1,0.071,1.68,0.074
					c0.073,0,0.145-0.006,0.215-0.02c0.066,0.014,0.137,0.02,0.21,0.02c0.217,0,0.423-0.003,0.62-0.01
					c0.443-0.014,0.824-0.038,1.145-0.074c0.021-0.004,0.042-0.008,0.065-0.011c0.757-0.097,1.483-0.255,2.18-0.476l0.005-0.004
					c0.854-0.277,1.668-0.65,2.445-1.121l-0.005,0.006c1.84-1.104,3.238-2.529,4.194-4.275c0.98-1.779,1.393-3.65,1.235-5.609
					c3.134,1.449,6.04,3.896,8.72,7.34h0.006c1.639,2.123,2.883,4.744,3.729,7.865c0.599-0.363,1.19-0.742,1.774-1.136
					c-0.916-3.143-2.226-5.796-3.93-7.96c-3-3.856-6.27-6.552-9.81-8.085c0.923-0.899,1.562-1.533,1.915-1.899
					c0.529-0.557,2.313-2.549,5.35-5.976c2.424-2.683,3.95-6.965,4.58-12.845c0.29-0.254,0.568-0.51,0.836-0.77h0.004
					c2.711-2.634,4.232-5.466,4.565-8.496c0.224-1.957-0.081-3.253-0.915-3.89c-0.45-0.48-1.072-0.703-1.865-0.67
					c0-0.104,0.002-0.205,0.006-0.305l0.484,0.035c0.41,0.023,0.771-0.102,1.085-0.375c0.31-0.273,0.479-0.617,0.505-1.03
					c0.027-0.414-0.097-0.775-0.369-1.085c-0.273-0.311-0.615-0.479-1.025-0.505l-1.186-0.08c-0.033-0.05-0.07-0.101-0.109-0.15
					c-0.15-0.177-0.328-0.313-0.535-0.41c-1.357-0.616-2.744-1.098-4.16-1.445l0.025,0.005c-0.09-0.023-0.179-0.043-0.266-0.061
					c-1.573-0.376-3.18-0.588-4.82-0.635C-526.267-572.84-529.2-572.632-532.11-572.129 M-531.875-569.129
					c0.017-0.007,0.033-0.01,0.05-0.01c0.04-0.01,0.08-0.017,0.12-0.021c0.02-0.003,0.043-0.006,0.07-0.01
					c2.723-0.47,5.47-0.665,8.24-0.585c1.443,0.04,2.857,0.227,4.244,0.56c0.018,0.003,0.03,0.006,0.041,0.01
					c0.039,0.006,0.079,0.015,0.119,0.024l0.025,0.01c0.963,0.237,1.912,0.543,2.845,0.92c0.026,0.109,0.069,0.215,0.13,0.314
					c0.051,0.474,0.061,0.952,0.03,1.436c-0.023,0.33-0.054,0.656-0.091,0.979l0.006-0.015c-0.174,1.39-0.52,2.72-1.04,3.99
					c-0.003,0.003-0.005,0.007-0.005,0.01c-0.131,0.307-0.269,0.611-0.415,0.915c-0.003,0.006-0.007,0.012-0.011,0.015
					c-0.1,0.2-0.206,0.402-0.319,0.605c-0.003,0.01-0.007,0.018-0.011,0.024c-0.119,0.22-0.244,0.436-0.375,0.646l-0.014,0.02
					c-0.084,0.14-0.172,0.282-0.266,0.426v-0.006c-0.113,0.167-0.23,0.336-0.35,0.506l-0.006,0.004
					c-0.16,0.224-0.345,0.416-0.555,0.576c-0.004,0-0.007,0.001-0.01,0.004c-0.007,0.004-0.012,0.008-0.016,0.01
					c-0.663,0.421-1.708,0.771-3.135,1.051h-0.005c-1.58,0.297-3.608,0.262-6.085-0.105l0.005,0.006
					c-2.247-0.338-3.962-1.242-5.146-2.716l-0.004-0.005c-0.157-0.2-0.305-0.398-0.445-0.595l-0.01-0.01
					c-0.407-0.544-0.762-1.067-1.065-1.57v-0.005c-0.467-0.767-0.813-1.479-1.04-2.135c-0.48-1.394-0.368-2.702,0.335-3.925v-0.005
					l0.011-0.005C-534.703-568.435-533.323-568.882-531.875-569.129 M-540-566.353c0.12,0.093,0.233,0.238,0.34,0.435
					c-0.053,0.983,0.1,1.997,0.46,3.04c0.283,0.833,0.718,1.737,1.306,2.71l0.004,0.005c0.348,0.58,0.756,1.184,1.226,1.811
					l-0.011-0.01c0.16,0.223,0.33,0.447,0.511,0.674c1.606,2.091,3.962,3.369,7.065,3.836c2.89,0.426,5.258,0.453,7.104,0.08
					c1.979-0.387,3.411-0.902,4.295-1.545c0.007-0.01,0.015-0.018,0.024-0.021c0.111-0.08,0.217-0.163,0.32-0.25
					c-0.399,6.637-1.83,11.376-4.289,14.22c-3.008,3.391-4.773,5.361-5.301,5.916c-0.523,0.543-1.682,1.68-3.475,3.409
					c-1.597,1.467-4.492,2.354-8.685,2.66c-0.287,0.017-0.58,0.035-0.88,0.056h-0.03c-4.67-0.244-7.857-1.148-9.56-2.716
					c-1.797-1.729-2.955-2.866-3.475-3.409c-0.53-0.555-2.297-2.525-5.3-5.916c-2.463-2.844-3.895-7.583-4.295-14.22
					c0.103,0.087,0.21,0.17,0.32,0.25c0.01,0.003,0.019,0.011,0.025,0.021c0.883,0.643,2.314,1.158,4.295,1.545H-558
					c1.843,0.373,4.21,0.346,7.1-0.08h0.005c3.1-0.467,5.453-1.745,7.06-3.836h0.005c0.177-0.227,0.347-0.451,0.51-0.674l-0.01,0.01
					c0.467-0.627,0.875-1.23,1.225-1.811v-0.005c0.586-0.973,1.023-1.876,1.31-2.71c0.356-1.043,0.51-2.057,0.46-3.04
					C-540.232-566.115-540.12-566.26-540-566.353 M-512.42-564.558c0.3,0.376,0.39,1.102,0.27,2.175
					c-0.279,2.28-1.34,4.435-3.18,6.465c0.043-0.823,0.072-1.671,0.085-2.545c0.013-0.026,0.028-0.054,0.045-0.08l-0.015,0.03
					c0.137-0.25,0.268-0.499,0.395-0.745l0.006-0.015c0.173-0.36,0.338-0.722,0.494-1.085l0.006-0.015
					c0.563-1.373,0.956-2.805,1.18-4.295C-512.838-564.698-512.6-564.662-512.42-564.558 M-531.1-528.914
					c0.083-0.109,0.143-0.225,0.18-0.345c0.373-0.196,0.717-0.407,1.029-0.63c0.094,1.514-0.239,2.96-1,4.34
					c-0.796,1.437-1.955,2.611-3.475,3.525c-0.646,0.39-1.323,0.699-2.029,0.93h0.004c-0.326,0.104-0.661,0.189-1.004,0.26
					l-0.011-0.05L-531.1-528.914 M-539.91-527.334c0.32-0.017,0.633-0.035,0.939-0.055h0.011c1.747-0.131,3.295-0.352,4.646-0.665
					l-4.966,6.319c-0.097,0.121-0.16,0.256-0.19,0.406c-0.033,0.149-0.032,0.299,0.005,0.449l0.065,0.255
					c-0.127,0.003-0.257,0.005-0.39,0.005c-0.073,0-0.144,0.007-0.21,0.021c-0.067-0.014-0.135-0.021-0.205-0.021
					c-0.137,0-0.267-0.002-0.39-0.005l0.06-0.25c0.037-0.149,0.04-0.3,0.01-0.45c-0.033-0.152-0.098-0.289-0.195-0.41l-4.965-6.319
					c1.59,0.37,3.457,0.61,5.6,0.72c0.026,0,0.053,0,0.08,0C-539.975-527.334-539.944-527.334-539.91-527.334 M-564.005-567.914
					c0.057-0.1,0.1-0.205,0.13-0.314c0.93-0.377,1.878-0.684,2.845-0.92l0.025-0.01c0.037-0.01,0.075-0.018,0.115-0.024
					c0.01-0.004,0.023-0.007,0.04-0.01c1.387-0.333,2.803-0.52,4.25-0.56c2.767-0.08,5.512,0.115,8.235,0.585
					c0.027,0.003,0.05,0.007,0.07,0.01c0.04,0.004,0.08,0.01,0.12,0.021c0.017,0,0.033,0.003,0.05,0.01
					c1.446,0.247,2.83,0.693,4.15,1.34l0.02,0.01l-0.015-0.005c0.704,1.227,0.817,2.537,0.34,3.931
					c-0.23,0.656-0.577,1.368-1.04,2.135l-0.005,0.005c-0.304,0.503-0.657,1.026-1.061,1.57l-0.01,0.01
					c-0.144,0.196-0.293,0.395-0.45,0.595v0.005c-1.187,1.474-2.901,2.378-5.145,2.716v-0.006c-2.477,0.367-4.505,0.402-6.085,0.105
					c-1.43-0.28-2.477-0.63-3.14-1.051c-0.003-0.002-0.008-0.006-0.015-0.01c-0.003-0.003-0.007-0.004-0.01-0.004
					c-0.21-0.16-0.394-0.353-0.55-0.576l-0.01-0.004c-0.12-0.17-0.236-0.339-0.35-0.506l0.005,0.006
					c-0.097-0.144-0.187-0.286-0.27-0.426l-0.01-0.02c-0.133-0.21-0.258-0.425-0.375-0.646l-0.005-0.01
					c-0.116-0.21-0.227-0.42-0.33-0.63v-0.005c-0.153-0.304-0.293-0.608-0.42-0.915c-0.003-0.003-0.005-0.007-0.005-0.01
					c-0.52-1.267-0.865-2.595-1.035-3.985v-0.005c-0.04-0.32-0.07-0.642-0.09-0.965
					C-564.069-566.962-564.059-567.44-564.005-567.914 M-567.58-564.558c0.18-0.104,0.42-0.14,0.72-0.11
					c0.22,1.493,0.613,2.925,1.18,4.295l0.005,0.015c0.153,0.367,0.32,0.732,0.5,1.095l0.005,0.005
					c0.12,0.243,0.247,0.487,0.38,0.729l-0.005-0.015c0.013,0.026,0.026,0.054,0.04,0.08c0.013,0.874,0.042,1.722,0.085,2.545
					c-1.844-2.03-2.902-4.185-3.175-6.465C-567.969-563.457-567.88-564.182-567.58-564.558 M-550.111-529.883
					c0.313,0.224,0.659,0.433,1.035,0.63c0.033,0.117,0.092,0.23,0.175,0.34l6.305,8.025l-0.015,0.055
					c-0.34-0.07-0.673-0.156-1-0.26h0.005c-0.707-0.23-1.382-0.54-2.025-0.93h-0.005c-1.521-0.914-2.679-2.089-3.476-3.525
					C-549.867-526.928-550.2-528.374-550.111-529.883 M-556.58-566.584c-0.014,0.137,0.025,0.259,0.115,0.365
					c0.09,0.104,0.203,0.162,0.34,0.175c0.137,0.01,0.258-0.028,0.365-0.115c0.63-0.536,1.246-0.946,1.85-1.229
					c-0.18,0.35-0.27,0.738-0.27,1.165c0,0.716,0.255,1.33,0.765,1.84c0.507,0.507,1.118,0.76,1.835,0.76s1.33-0.253,1.84-0.76
					c0.507-0.51,0.76-1.124,0.76-1.84c0-0.153-0.012-0.3-0.035-0.44c0.357,0.3,0.707,0.657,1.05,1.07
					c0.09,0.106,0.203,0.167,0.34,0.18c0.137,0.01,0.258-0.028,0.365-0.115c0.106-0.09,0.166-0.204,0.18-0.34
					c0.01-0.137-0.028-0.258-0.115-0.365c-1.383-1.657-2.847-2.533-4.39-2.63c-1.537-0.13-3.144,0.517-4.82,1.94
					C-556.512-566.834-556.571-566.72-556.58-566.584 M-549.295-546.964c-0.127-0.054-0.253-0.054-0.38,0
					c-0.13,0.054-0.22,0.144-0.271,0.271c-0.08,0.189-0.165,0.365-0.255,0.524l0.005-0.005c-0.06,0.1-0.122,0.193-0.185,0.279
					c-0.08,0.055-0.137,0.123-0.17,0.205c-0.063,0.07-0.13,0.134-0.2,0.19v-0.005c-0.243,0.197-0.52,0.318-0.83,0.365
					c-0.137,0.02-0.247,0.086-0.33,0.199c-0.083,0.111-0.115,0.234-0.095,0.371c0.02,0.133,0.086,0.241,0.2,0.324
					c0.11,0.084,0.233,0.115,0.37,0.096c0.493-0.074,0.932-0.266,1.315-0.575c0.077-0.063,0.151-0.132,0.225-0.205
					c1.32,0.28,2.8,0.489,4.44,0.63c1.333,0.109,2.867,0.178,4.6,0.205c0.136,0,0.255-0.047,0.355-0.141
					c0.097-0.096,0.146-0.213,0.15-0.35c0.003-0.14-0.043-0.258-0.14-0.355c-0.097-0.1-0.213-0.15-0.35-0.154
					c-1.71-0.027-3.22-0.094-4.53-0.2c-1.417-0.12-2.71-0.295-3.88-0.524c0.08-0.154,0.156-0.318,0.23-0.496
					c0.05-0.126,0.05-0.253,0-0.379C-549.077-546.824-549.169-546.914-549.295-546.964 M-535.981-540.828
					c-0.129-0.044-0.256-0.034-0.379,0.029c-0.678,0.336-1.522,0.543-2.535,0.62l0.004-0.005c-0.206,0.014-0.419,0.021-0.64,0.025
					h-0.005c-0.14,0.002-0.283,0.002-0.43,0c-0.014,0-0.025,0-0.035,0s-0.02,0-0.03,0c-0.376,0.006-0.735-0.002-1.075-0.025
					l0.005,0.005c-1.017-0.077-1.863-0.284-2.54-0.62c-0.124-0.063-0.25-0.073-0.38-0.029c-0.13,0.043-0.227,0.126-0.29,0.25
					c-0.063,0.123-0.073,0.25-0.03,0.379c0.043,0.131,0.126,0.229,0.25,0.295c0.776,0.394,1.748,0.634,2.915,0.721h0.005
					c0.363,0.023,0.748,0.031,1.155,0.025c0.003,0,0.008,0,0.015,0c0.003,0,0.008,0,0.015,0c0.16,0.002,0.318,0.002,0.476,0
					c0.233-0.004,0.459-0.012,0.68-0.025h0.01c1.164-0.087,2.134-0.327,2.91-0.721c0.123-0.066,0.207-0.164,0.25-0.295
					c0.043-0.129,0.033-0.256-0.029-0.379C-535.754-540.702-535.85-540.785-535.981-540.828 M-532.99-552.183v-0.006
					c0-0.253-0.038-0.504-0.115-0.754c-0.043-0.134-0.125-0.232-0.244-0.295c-0.124-0.067-0.252-0.079-0.385-0.035
					c-0.131,0.039-0.228,0.121-0.291,0.244c-0.066,0.121-0.078,0.247-0.035,0.381c0.047,0.149,0.07,0.301,0.07,0.455v0.004
					c-0.004,0.471-0.189,0.844-0.561,1.121c-0.373,0.279-0.793,0.439-1.26,0.479c-0.006-0.003-0.012-0.003-0.015,0
					c-0.55,0.063-1.097,0.089-1.64,0.075c-0.12-0.004-0.227,0.031-0.32,0.105c-0.523,0.406-1.097,0.619-1.72,0.639h-0.01
					c-0.126,0.004-0.256,0-0.39-0.01c-0.013-0.003-0.026-0.004-0.04-0.004l-0.025-0.006c-0.046-0.003-0.091,0-0.135,0.01
					c-0.777,0.066-1.479-0.143-2.105-0.629c-0.097-0.074-0.204-0.109-0.32-0.105c-0.546,0.014-1.093-0.012-1.64-0.075
					c-0.007-0.003-0.012-0.003-0.015,0c-0.47-0.04-0.892-0.2-1.265-0.479c-0.37-0.277-0.557-0.65-0.56-1.121v-0.004
					c0-0.154,0.024-0.306,0.075-0.455c0.04-0.134,0.028-0.26-0.035-0.381c-0.066-0.123-0.165-0.205-0.295-0.244
					c-0.133-0.044-0.26-0.032-0.38,0.035c-0.124,0.063-0.205,0.161-0.245,0.295c-0.08,0.25-0.12,0.501-0.12,0.754v0.006
					c0.01,0.803,0.33,1.441,0.96,1.914c0.526,0.395,1.12,0.619,1.78,0.676h-0.015c0.537,0.061,1.072,0.088,1.605,0.085
					c0.8,0.573,1.692,0.815,2.675,0.726c0.177,0.016,0.352,0.021,0.525,0.014h0.005c0.78-0.02,1.5-0.266,2.161-0.739
					c0.529,0.003,1.064-0.024,1.604-0.085h-0.015c0.656-0.057,1.248-0.281,1.774-0.676C-533.321-550.742-533-551.38-532.99-552.183
					 M-530.321-546.964c-0.13-0.054-0.258-0.054-0.385,0c-0.127,0.05-0.217,0.14-0.27,0.271c-0.054,0.126-0.054,0.253,0,0.379
					c0.069,0.178,0.146,0.342,0.229,0.496c-1.17,0.229-2.464,0.404-3.88,0.524c-1.313,0.106-2.823,0.173-4.53,0.2
					c-0.14,0.004-0.256,0.055-0.35,0.154c-0.1,0.098-0.148,0.216-0.146,0.355c0.004,0.137,0.055,0.254,0.155,0.35
					c0.097,0.094,0.215,0.141,0.355,0.141c1.73-0.027,3.263-0.096,4.6-0.205c1.637-0.141,3.114-0.35,4.435-0.63
					c0.074,0.073,0.148,0.142,0.226,0.205c0.384,0.31,0.823,0.501,1.319,0.575c0.134,0.02,0.258-0.012,0.371-0.096
					c0.109-0.083,0.174-0.191,0.194-0.324c0.021-0.137-0.012-0.26-0.095-0.371c-0.084-0.113-0.191-0.18-0.325-0.199
					c-0.313-0.047-0.592-0.168-0.835-0.365v0.005c-0.07-0.06-0.137-0.123-0.2-0.19c-0.033-0.08-0.087-0.146-0.159-0.199
					c-0.067-0.087-0.129-0.18-0.186-0.28v-0.005c-0.094-0.16-0.179-0.334-0.256-0.52
					C-530.104-546.82-530.194-546.91-530.321-546.964 M-532.375-565.414c0.137-0.013,0.25-0.073,0.34-0.18
					c0.344-0.414,0.693-0.77,1.051-1.07c-0.023,0.14-0.035,0.287-0.035,0.44c0,0.716,0.253,1.33,0.76,1.84
					c0.51,0.507,1.123,0.76,1.84,0.76s1.328-0.253,1.835-0.76c0.51-0.51,0.765-1.124,0.765-1.84c0-0.427-0.09-0.815-0.27-1.165
					c0.604,0.283,1.221,0.693,1.855,1.229c0.103,0.087,0.223,0.125,0.359,0.115c0.137-0.013,0.25-0.071,0.34-0.175
					c0.09-0.106,0.13-0.229,0.12-0.365c-0.013-0.137-0.071-0.25-0.175-0.34c-1.68-1.423-3.289-2.07-4.825-1.94
					c-1.544,0.097-3.007,0.973-4.39,2.63c-0.087,0.107-0.123,0.228-0.11,0.365c0.01,0.137,0.068,0.25,0.175,0.34
					C-532.633-565.442-532.512-565.403-532.375-565.414 M-534.356-575.323c-0.223,0.163-0.356,0.381-0.399,0.655
					c-0.047,0.27,0.011,0.517,0.175,0.74c0.163,0.223,0.382,0.358,0.654,0.405c0.271,0.043,0.52-0.017,0.746-0.18
					c2.616-1.813,6.654-1.875,12.115-0.185c0.006,0.003,0.013,0.006,0.02,0.01c0.083,0.023,0.166,0.048,0.25,0.075
					c0.26,0.083,0.514,0.062,0.76-0.065c0.246-0.126,0.412-0.32,0.495-0.58c0.087-0.263,0.066-0.519-0.06-0.765
					c-0.127-0.247-0.322-0.412-0.586-0.495c-0.096-0.034-0.193-0.064-0.289-0.09C-526.735-577.735-531.362-577.577-534.356-575.323z
					"/>
			</g>
		</g>
	</g>
</g>
<g>
</g>
<g>
</g>
<g>
</g>
<g>
</g>
<g>
</g>
<g>
</g>
</svg>
