<?xml version="1.0" encoding="utf-8"?>
<!-- Generator: Adobe Illustrator 16.0.3, SVG Export Plug-In . SVG Version: 6.00 Build 0)  -->
<!DOCTYPE svg PUBLIC "-//W3C//DTD SVG 1.1//EN" "http://www.w3.org/Graphics/SVG/1.1/DTD/svg11.dtd">
<svg version="1.1" id="圖層_1" xmlns="http://www.w3.org/2000/svg" xmlns:xlink="http://www.w3.org/1999/xlink" x="0px" y="0px"
	 width="504px" height="216px" viewBox="0 0 504 216" enable-background="new 0 0 504 216" xml:space="preserve">
<g id="Hello" opacity="0.9">
	<path fill="#FFFFFF" d="M459.301,148.971c3.799,3.832,5.699,8.432,5.699,13.799c0,5.4-1.9,10-5.699,13.801
		c-3.834,3.801-8.434,5.699-13.801,5.699c-5.4,0-10-1.898-13.799-5.699C427.9,172.77,426,168.172,426,162.77
		c0-5.367,1.9-9.967,5.701-13.799c3.799-3.801,8.398-5.701,13.799-5.701C450.867,143.27,455.467,145.17,459.301,148.971z
		 M453,162.77c0-2.033-0.732-3.799-2.199-5.299c-1.467-1.467-3.234-2.201-5.301-2.201s-3.832,0.734-5.299,2.201
		c-1.469,1.465-2.201,3.232-2.201,5.299c0,2.068,0.732,3.834,2.201,5.301c1.465,1.467,3.232,2.199,5.299,2.199
		s3.834-0.732,5.301-2.199S453,164.838,453,162.77z"/>
	<g>
		<path fill="#FFFFFF" d="M133.5,49.619L120,51.471v81.699l13.5-1.852V49.619z M145.1,36.471c2.933,2.533,4.4,5.867,4.4,10v83.648
			c0,4.135-1.467,7.867-4.4,11.199c-2.934,3.334-6.467,5.283-10.6,5.852l-15.55,2.148c-4.133,0.568-7.65-0.416-10.55-2.949
			c-2.933-2.533-4.4-5.865-4.4-10V52.67c0-4.133,1.467-7.867,4.4-11.199c2.9-3.334,6.417-5.283,10.55-5.852l15.55-2.148
			C138.632,32.938,142.167,33.938,145.1,36.471z"/>
		<path fill="#FFFFFF" d="M212.649,66.818v21.051l22.85-3.1V63.721L212.649,66.818z M196.649,90.068V69.02l-22.65,3.1V93.17
			L196.649,90.068z M196.649,26.471L174,29.57v26.551l22.65-3.102V26.471z M235.5,21.119l-22.85,3.15V50.82l22.85-3.1V21.119z
			 M158,30.77c0-4.166,1.467-7.898,4.4-11.199c2.9-3.334,6.417-5.283,10.55-5.85L236.5,5.02c4.134-0.566,7.667,0.418,10.6,2.951
			c2.935,2.5,4.4,5.814,4.4,9.949v65.648c0,4.135-1.466,7.867-4.4,11.201c-2.933,3.332-6.466,5.283-10.6,5.85l-23.85,3.25v16.051
			l35.741-4.895c1.885-0.432,2.609,0.486,2.609,1.943v11c0,2.125-0.601,2.781-2.592,3.055l-35.758,4.896v16.551
			c0,0,37.691-5.113,39.512-5.412c1.821-0.297,2.838,0.621,2.838,2.412v10.75c0,1.625-0.463,2.514-2.453,2.787l-114.955,15.799
			c-1.61,0.121-2.093-0.545-2.093-2.211v-10.875c0-1.875,0.837-2.74,2.249-2.936l58.901-8.115v-16.551l-34.514,4.758L160,143.17
			v-2.199v-11.457c0-1.502,0.849-2.461,2.109-2.635l34.541-4.76v-16.051l-23.7,3.25c-4.133,0.568-7.65-0.416-10.55-2.949
			c-2.934-2.5-4.4-5.832-4.4-10V30.77z"/>
	</g>
	<g>
		<path fill="#FFFFFF" d="M417.35,33.469v10.875c0,1.75-0.467,2.789-2.949,3.131L300.049,63.17c-5.666,0.768-9.416,2.018-11.25,3.75
			c-1.832,1.699-2.75,4.85-2.75,9.449l0.4,72.449c-0.199,9.533-1.332,19.668-3.4,30.4c-2.133,11-4.883,20.732-8.25,29.201
			l-2.594,6.639c-0.32,0.773-0.58,1.127-1.578,0.846l-12.603-3.547c-0.604-0.137-0.93-0.533-0.651-1.242l2.676-6.846
			c2.969-7.434,5.4-16.133,7.301-26.1c1.867-9.734,2.9-18.867,3.102-27.4l-0.4-72.201c0-9.365,2.582-16.648,7.75-21.85
			c4.935-5,12.351-8.184,22.25-9.549l113.846-15.627C416.482,31.178,417.35,31.262,417.35,33.469z"/>
		<path fill="#FFFFFF" d="M311.899,107.318v6.951l82.501-11.301V96.02L311.899,107.318z M395.4,57.221
			c4.133-0.566,7.666,0.416,10.6,2.949s4.4,5.867,4.4,10v31.6c0,4.133-1.467,7.867-4.4,11.201c-2.934,3.332-6.467,5.283-10.6,5.85
			l-84.551,11.549c-4.133,0.566-7.648-0.416-10.551-2.949c-2.932-2.5-4.398-5.832-4.398-10V85.869c0-4.133,1.467-7.865,4.398-11.199
			c2.9-3.332,6.418-5.283,10.551-5.852L395.4,57.221z M394.4,80.02v-6.648l-82.501,11.301v6.648L394.4,80.02z"/>
		<path fill="#FFFFFF" d="M290,187.012V175.43c0-1.418,0.996-2.098,2.36-2.283l56.79-7.775v-6.4c0-1.799,0.533-3.482,1.6-5.049
			c1.1-1.568,2.518-2.719,4.25-3.451l10.066-4.041l-59.167,8.295c-1.75,0.244-2.899-0.633-2.899-2.631c0-2,0-10.125,0-10.125
			c0-1.875,0.731-2.949,2.762-3.229L396.9,126.27c1.898-0.266,3.6,0.117,5.1,1.15c2.9,2,4.5,4.449,4.799,7.35
			c0.201,2.168-0.266,4.201-1.398,6.102c-1.033,1.732-2.518,3.217-4.449,4.449c-2.436,1.633-6.367,3.816-11.801,6.551l-7.551,3.6
			c-5.898,2.701-11.018,4.982-15.35,6.85l-1.1,0.5v0.352l48.24-6.641c1.676-0.268,2.607,0.65,2.607,2.066v10.832
			c0,1.584-0.977,2.875-2.598,3.1l-48.252,6.643v7c0,4.768-1.949,9.232-5.852,13.398c-3.898,4.168-8.314,6.584-13.25,7.25
			l-18.316,2.518c-1.666,0.178-2.434-0.574-2.434-1.99V195.68c0-1.414,0.428-2.064,2.072-2.291l18.729-2.566
			c0.732-0.133,1.482-0.6,2.25-1.398c0.334-0.334,0.602-0.734,0.801-1.201v-6.85l-56.99,7.805
			C290.815,189.43,290,188.428,290,187.012z"/>
	</g>
	<g>
		<path fill="#FFFFFF" d="M470.6,201.818l1.199,0.301c-0.633,2.5-1.482,4.699-2.549,6.602l-1.201-0.451
			C469.082,206.402,469.932,204.254,470.6,201.818z"/>
		<path fill="#FFFFFF" d="M485.449,205.318c0.867-1.799,1.367-3.85,1.5-6.148h-2.1c-0.4,1.934-0.852,3.518-1.352,4.75
			L485.449,205.318z M481.65,197.92h2.199l0.648-3.65l1.299,0.15l-0.646,3.5h3.1v0.75c-0.133,2.768-0.717,5.25-1.75,7.449
			c0.832,0.635,1.684,1.352,2.549,2.15l-0.898,1.049c-0.602-0.633-1.352-1.332-2.25-2.1c-0.936,1.535-2.084,2.816-3.451,3.85
			l-0.9-1.1c1.303-0.867,2.4-2.049,3.303-3.549c-0.668-0.568-1.584-1.27-2.75-2.102c0.6-1.768,1.082-3.482,1.447-5.148h-1.896v-1.25
			H481.65z"/>
		<path fill="#FFFFFF" d="M461.25,194.318c-0.701,1.135-1.283,2.367-1.75,3.701c-0.5,1.6-0.75,3.166-0.75,4.699
			c0,1.535,0.25,3.1,0.75,4.701c0.5,1.398,1.082,2.633,1.75,3.699h-1.301c-0.799-1.232-1.416-2.469-1.85-3.699
			c-0.5-1.533-0.75-3.102-0.75-4.701c0-1.566,0.25-3.133,0.75-4.699c0.434-1.232,1.051-2.467,1.85-3.701H461.25z"/>
		<path fill="#FFFFFF" d="M501.85,198.02c-0.467-1.332-1.051-2.566-1.75-3.699h1.301c0.699,1.066,1.314,2.301,1.85,3.699
			c0.5,1.566,0.75,3.133,0.75,4.701c0,1.6-0.25,3.166-0.75,4.699c-0.533,1.398-1.148,2.633-1.85,3.699H500.1
			c0.666-1.066,1.25-2.301,1.75-3.699c0.5-1.602,0.75-3.166,0.75-4.699S502.35,199.619,501.85,198.02z"/>
		<path fill="#FFFFFF" d="M495.699,196.67H489.4v-1.25h7.799v1.25c-1.033,1.467-2.018,2.633-2.949,3.5v1.898h3.65v1.25h-3.65v5.75
			c0,1.168-0.467,1.75-1.4,1.75h-2.6l-0.35-1.25h2.396c0.436,0,0.65-0.299,0.65-0.898v-5.352h-4.1v-1.25h4.1v-2.299
			C493.916,198.902,494.832,197.869,495.699,196.67z"/>
		<path fill="#FFFFFF" d="M470.9,194.42l1.25,0.25l-0.604,2h7.65v0.85c-0.299,1.133-0.666,2.234-1.1,3.301l-1.25-0.35
			c0.4-0.734,0.75-1.584,1.051-2.551h-6.852c-0.467,1.232-1.133,2.518-2,3.85l-1.1-0.699
			C469.35,199.037,470.332,196.818,470.9,194.42z"/>
		<path fill="#FFFFFF" d="M467.549,194.42l1.201,0.551c-0.566,1.633-1.168,2.982-1.801,4.049v11.951h-1.299v-9.951
			c-0.668,0.9-1.318,1.684-1.951,2.352l-0.4-1.4C465.199,199.803,466.617,197.287,467.549,194.42z"/>
		<path fill="#FFFFFF" d="M476.1,202.02l1.15-0.35c0.9,2.066,1.699,4.35,2.4,6.85l-1.15,0.5
			C477.832,206.453,477.033,204.119,476.1,202.02z"/>
		<path fill="#FFFFFF" d="M473.549,209.02v-9.549h1.25v9.898c0,1-0.5,1.5-1.5,1.5h-2.35l-0.25-1.199l2.15,0.051
			C473.316,209.721,473.549,209.486,473.549,209.02z"/>
	</g>
	<g>
		<path fill="#FFFFFF" d="M327.457,31.291c-0.984-0.58-1.478-1.768-1.478-3.557V4.541l3.995-0.604v22.924
			c0,0.947,0.51,1.33,1.529,1.148l1.367-0.221v3.832l-1.805,0.217C329.682,32.059,328.479,31.877,327.457,31.291z"/>
		<path fill="#FFFFFF" d="M346.604,14.881c-0.254-0.365-0.691-0.656-1.313-0.875c-0.582-0.184-1.221-0.221-1.914-0.109
			c-0.691,0.109-1.313,0.328-1.859,0.656c-0.658,0.475-1.113,0.893-1.367,1.258c-0.365,0.584-0.621,1.166-0.768,1.75
			c-0.145,0.949-0.219,1.988-0.219,3.119c0,1.203,0.074,2.207,0.219,3.01c0.146,0.619,0.402,1.166,0.768,1.641
			c0.291,0.293,0.746,0.564,1.367,0.82c0.547,0.219,1.166,0.273,1.859,0.164c0.766-0.109,1.404-0.346,1.914-0.711
			c0.621-0.4,1.059-0.803,1.313-1.203c0.402-0.549,0.676-1.168,0.82-1.861c0.111-0.654,0.166-1.658,0.166-3.008
			c0-1.422-0.055-2.441-0.166-3.063C347.279,15.848,347.006,15.318,346.604,14.881z M351.145,14.115
			c0.328,1.094,0.494,2.697,0.494,4.813c0,2.117-0.166,3.738-0.494,4.869c-0.291,1.096-0.855,2.135-1.695,3.117l-0.93,0.984
			c-0.293,0.365-0.73,0.713-1.313,1.041c-1.059,0.691-2.334,1.148-3.83,1.367c-1.531,0.219-2.771,0.107-3.721-0.328
			c-0.984-0.33-1.77-0.783-2.354-1.367c-0.691-0.658-1.238-1.533-1.641-2.627c-0.33-1.02-0.492-2.59-0.492-4.705
			c0-2.117,0.162-3.758,0.492-4.924c0.4-1.203,0.947-2.207,1.641-3.008c0.512-0.73,1.297-1.441,2.354-2.133
			c0.912-0.658,2.152-1.096,3.721-1.314c1.605-0.219,2.881-0.145,3.83,0.219c0.91,0.365,1.658,0.857,2.242,1.479
			C350.287,12.291,350.854,13.131,351.145,14.115z"/>
		<path fill="#FFFFFF" d="M315.805,6.02l4.049-0.604v22.867c0,0.949,0.491,1.332,1.477,1.148l1.422-0.164v3.775l-1.805,0.271
			c-1.459,0.221-2.662,0.02-3.611-0.6c-1.021-0.584-1.53-1.771-1.53-3.559L315.805,6.02L315.805,6.02z"/>
		<polygon fill="#FFFFFF" points="286.317,10.229 290.584,9.574 290.584,37.639 286.317,38.24 286.317,25.986 275.213,27.572 
			275.213,39.826 271,40.43 271,12.42 275.213,11.762 275.213,23.797 286.317,22.213 		"/>
		<path fill="#FFFFFF" d="M309.186,17.014c1.605,1.277,2.406,3.229,2.406,5.854v3.283l-12.418,1.805
			c0,1.604,0.457,2.756,1.367,3.447c0.912,0.729,2.043,0.984,3.393,0.766c1.604-0.219,3.063-1.059,4.375-2.518l2.9,2.025
			c-2.006,2.479-4.412,3.898-7.222,4.266c-1.021,0.146-2.043,0.146-3.063,0c-0.51-0.109-0.984-0.271-1.422-0.49
			c-0.51-0.146-0.984-0.385-1.422-0.713c-0.84-0.547-1.533-1.477-2.08-2.789c-0.582-1.275-0.875-2.9-0.875-4.869
			c0-1.934,0.256-3.609,0.767-5.031c0.474-1.389,1.112-2.535,1.915-3.447c0.875-0.912,1.77-1.605,2.68-2.08
			c0.876-0.438,1.842-0.746,2.9-0.93C305.719,15.301,307.652,15.773,309.186,17.014z M307.599,23.414
			c-0.037-1.494-0.456-2.607-1.259-3.338c-0.803-0.619-1.786-0.855-2.953-0.709c-1.168,0.145-2.152,0.674-2.955,1.586
			c-0.766,0.91-1.186,2.133-1.258,3.664L307.599,23.414z"/>
		<polygon fill="#FFFFFF" points="366.299,0.493 363.398,20.021 360.227,19.693 361.43,0 		"/>
		<polygon fill="#FFFFFF" points="363.563,24.127 363.125,28.395 358.75,27.9 359.188,23.633 		"/>
	</g>
</g>
</svg>
